<?xml version="1.0" encoding="UTF-8"?>
<svg width="56px" height="56px" viewBox="0 0 56 56" version="1.1" xmlns="http://www.w3.org/2000/svg" xmlns:xlink="http://www.w3.org/1999/xlink">
    <title>icon_zhang1</title>
    <defs>
        <filter x="-26.2%" y="-26.2%" width="152.5%" height="152.5%" filterUnits="objectBoundingBox" id="filter-1">
            <feOffset dx="0" dy="0" in="SourceAlpha" result="shadowOffsetOuter1"></feOffset>
            <feGaussianBlur stdDeviation="2.5" in="shadowOffsetOuter1" result="shadowBlurOuter1"></feGaussianBlur>
            <feColorMatrix values="0 0 0 0 0.565511593   0 0 0 0 0.565537605   0 0 0 0 0.564035665  0 0 0 0.546777685 0" type="matrix" in="shadowBlurOuter1" result="shadowMatrixOuter1"></feColorMatrix>
            <feMerge>
                <feMergeNode in="shadowMatrixOuter1"></feMergeNode>
                <feMergeNode in="SourceGraphic"></feMergeNode>
            </feMerge>
        </filter>
    </defs>
    <g id="Joybit蓝色" stroke="none" stroke-width="1" fill="none" fill-rule="evenodd">
        <g id="0-图标下载" transform="translate(-349.000000, -232.000000)">
            <g id="用户账单" transform="translate(337.000000, 240.000000)">
                <g id="icon_zhang1" transform="translate(20.000000, 0.000000)">
                    <path d="M0,0 L40,0 L40,40 L0,40 L0,0 Z" id="矩形"></path>
                    <g id="icon_zhang" filter="url(#filter-1)">
                        <path d="M39.0252677,9.36705869 C38.2420991,5.098179 34.901767,1.75742702 30.6326014,0.974495042 C27.1682061,0.339024431 23.704553,0.0142969169 20.2409389,0 L19.7591002,0 C16.2954861,0.0142969169 12.8315596,0.339024431 9.36767208,0.974495042 C5.09831112,1.75742702 1.7578228,5.098179 0.974732274,9.36705869 C0.335041026,12.8544127 0.0101563095,16.3417276 0,19.8290815 L0,20.1702544 C0.0101563095,23.6576084 0.335041026,27.1449233 0.974771337,30.6322772 C1.7578228,34.9011569 5.09831112,38.2420652 9.36767208,39.0252315 C12.9117944,39.6747647 16.4559167,40 19.9998828,40 C23.5440833,40 27.0880884,39.6747647 30.6326014,39.0252315 C34.9017279,38.2420652 38.2420991,34.9011569 39.0252677,30.6322772 C39.6753106,27.0876965 40,23.5442877 40,19.999668 C40,16.4556732 39.6753106,12.9116394 39.0252677,9.36705869 Z" id="kSASSVGImageLayerID1" fill="#024FFD" fill-rule="nonzero"></path>
                        <g id="永续合约icon" transform="translate(5.555556, 8.888889)" fill="#FFFFFF">
                            <path d="M7.562,3.66666667 L7.562,6.07766667 L2.87848474,8.13989086 C2.60812558,8.25860004 2.39766828,8.47875416 2.29195509,8.75189829 C2.1862419,9.02504243 2.19393698,9.32878994 2.31334667,9.59628738 L2.31334667,9.59628738 L7.0976156,20.3574394 C7.19736148,20.5818052 7.36310018,20.7566738 7.56207496,20.8694424 L7.56258859,21.7218917 L12.222,21.7216667 L9.45722413,22.9392332 C8.65036461,23.2944133 7.73474918,23.3160971 6.91182159,22.9995139 C6.088894,22.6829308 5.42607118,22.0540163 5.06918019,21.2511373 L0.284911262,10.4899852 C-0.457741491,8.81727868 0.301429775,6.86212508 1.98143431,6.1207957 L7.562,3.66666667 Z" id="矩形_1250"></path>
                            <path d="M21.2713675,0 C23.0238095,0 24.4444444,1.43957673 24.4444444,3.21538462 L24.4444444,20.0068376 C24.4444444,21.7826455 23.0238095,23.2222222 21.2713675,23.2222222 L9.28418803,23.2222222 C7.53174604,23.2222222 6.11111111,21.7826455 6.11111111,20.0068376 L6.11111111,3.21538462 C6.11111111,1.43957673 7.53174604,0 9.28418803,0 L21.2713675,0 Z M22,9.77777778 L17.1111111,9.77777778 C16.4360964,9.77777778 15.8888889,10.3249853 15.8888889,11 C15.8888889,11.6750147 16.4360964,12.2222222 17.1111111,12.2222222 L17.1111111,12.2222222 L22,12.2222222 C22.6750147,12.2222222 23.2222222,11.6750147 23.2222222,11 C23.2222222,10.3249853 22.6750147,9.77777778 22,9.77777778 L22,9.77777778 Z M20.7777778,6.11111111 L12.2222222,6.11111111 C11.5472075,6.11111111 11,6.65831864 11,7.33333333 C11,7.96615961 11.4809441,8.48665537 12.0972571,8.54924536 L12.2222222,8.55555556 L20.7777778,8.55555556 C21.4527925,8.55555556 22,8.00834803 22,7.33333333 C22,6.65831864 21.4527925,6.11111111 20.7777778,6.11111111 Z" id="形状结合"></path>
                        </g>
                    </g>
                </g>
            </g>
        </g>
    </g>
</svg>