<?xml version="1.0" encoding="UTF-8"?>
<svg width="30px" height="30px" viewBox="0 0 30 30" version="1.1" xmlns="http://www.w3.org/2000/svg" xmlns:xlink="http://www.w3.org/1999/xlink">
    <title>icon_copy@2x</title>
    <g id="Joybit蓝色" stroke="none" stroke-width="1" fill="none" fill-rule="evenodd">
        <g id="0-图标下载" transform="translate(-496.000000, -733.000000)">
            <g id="复制" transform="translate(491.000000, 733.000000)">
                <g id="icon_copy" transform="translate(5.000000, 0.000000)">
                    <rect id="矩形_1263" fill-rule="nonzero" x="0" y="0" width="30" height="30"></rect>
                    <g transform="translate(3.000000, 2.000000)" fill="#024FFD" id="kSASSVGImageLayerID1">
                        <path d="M15.483871,26 L2.32258065,26 C1.03974194,26 0,24.973 0,23.7058824 L0,8.41176471 C0,7.14464706 1.03974194,6.11764706 2.32258065,6.11764706 L15.483871,6.11764706 C16.7667097,6.11764706 17.8064516,7.14464706 17.8064516,8.41176471 L17.8064516,23.7058824 C17.8064516,24.973 16.7667097,26 15.483871,26 Z M14.7096774,9.17647059 L3.09677419,9.17647059 L3.09677419,22.9411765 L14.7096774,22.9411765 L14.7096774,9.17647059 Z"></path>
                        <path d="M22.4516129,20.6470588 C21.596129,20.6470588 20.9032258,19.9618824 20.9032258,19.1176471 L20.9032258,3.05882353 L7.74193548,3.05882353 C6.88645161,3.05882353 6.19354839,2.37441176 6.19354839,1.52941176 C6.19354839,0.684411765 6.88645161,0 7.74193548,0 L22.4516129,0 C23.3070968,0 24,0.684411765 24,1.52941176 L24,19.1176471 C24,19.9618824 23.3070968,20.6470588 22.4516129,20.6470588 Z M7.74193548,17.5882353 L10.8387097,17.5882353 C11.6941935,17.5882353 12.3870968,18.2726471 12.3870968,19.1176471 C12.3870968,19.9618824 11.6941935,20.6470588 10.8387097,20.6470588 L7.74193548,20.6470588 C6.88645161,20.6470588 6.19354839,19.9618824 6.19354839,19.1176471 C6.19354839,18.2726471 6.88645161,17.5882353 7.74193548,17.5882353 Z"></path>
                    </g>
                </g>
            </g>
        </g>
    </g>
</svg>