<?xml version="1.0" encoding="UTF-8"?>
<svg width="66px" height="40px" viewBox="0 0 66 40" version="1.1" xmlns="http://www.w3.org/2000/svg" xmlns:xlink="http://www.w3.org/1999/xlink">
    <title>sun_icon</title>
    <g id="页面-1" stroke="none" stroke-width="1" fill="none" fill-rule="evenodd">
        <g id="0-图标下载" transform="translate(-498.000000, -239.000000)" fill-rule="nonzero">
            <g id="sun_icon" transform="translate(498.000000, 239.000000)">
                <rect id="矩形" fill="#DBDCE0" x="0" y="0" width="66" height="40" rx="20"></rect>
                <g id="太阳" transform="translate(2.000000, 2.000000)">
                    <circle id="椭圆形" fill="#FFFFFF" cx="18" cy="18" r="18"></circle>
                    <path d="M12.15,18 C12.15,21.2308658 14.7691342,23.85 18,23.85 C21.2308658,23.85 23.85,21.2308658 23.85,18 C23.85,14.7691342 21.2308658,12.15 18,12.15 C14.7691342,12.15 12.15,14.7691342 12.15,18 Z M17.5,8 L18.45,8 L18.45,10.45 L17.5,10.45 L17.5,8 Z M12.587,9.542 L13.4095,9.067 L14.6345,11.189 L13.812,11.664 L12.587,9.542 Z M9.134,13.387 L9.609,12.564 L11.731,13.789 L11.256,14.612 L9.134,13.387 Z M8,17.5 L10.45,17.5 L10.45,18.45 L8,18.45 L8,17.5 Z M9.091,22.5845 L11.213,21.3595 L11.688,22.1825 L9.566,23.4075 L9.091,22.5845 Z M12.603,26.3675 L13.828,24.246 L14.651,24.721 L13.426,26.8425 L12.603,26.3675 Z M17.5,25.5 L18.45,25.5 L18.45,27.95 L17.5,27.95 L17.5,25.5 Z M21.3565,24.7385 L22.1795,24.2635 L23.4045,26.385 L22.5815,26.86 L21.3565,24.7385 Z M24.2865,22.148 L24.7615,21.325 L26.883,22.5505 L26.408,23.3735 L24.2865,22.148 Z M25.5,17.5 L27.95,17.5 L27.95,18.45 L25.5,18.45 L25.5,17.5 Z M24.287,13.8135 L26.409,12.5885 L26.884,13.4115 L24.7615,14.6365 L24.287,13.8135 Z M21.365,11.215 L22.59,9.0935 L23.4125,9.5685 L22.1875,11.6905 L21.365,11.215 Z" id="形状" fill="#F0B90B"></path>
                </g>
            </g>
        </g>
    </g>
</svg>