<?xml version="1.0" encoding="UTF-8"?>
<svg width="45px" height="45px" viewBox="0 0 45 45" version="1.1" xmlns="http://www.w3.org/2000/svg" xmlns:xlink="http://www.w3.org/1999/xlink">
    <title>icon_fa3</title>
    <g id="Saas设计规范3.0" stroke="none" stroke-width="1" fill="none" fill-rule="evenodd">
        <g id="6.3-首页快捷入口图标规范" transform="translate(-676.000000, -326.000000)">
            <g id="椰子" transform="translate(260.000000, 326.000000)">
                <g id="icon_fa3" transform="translate(417.000000, 0.000000)">
                    <path d="M0,0 L44,0 L44,44 L0,44 L0,0 Z" id="矩形"></path>
                    <g id="icon_chong">
                        <path d="M17,10 C26.3887813,10 34,17.6112187 34,27 C34,36.3887813 26.3887813,44 17,44 C7.61121875,44 0,36.3887813 0,27 C0,17.6112187 7.61121875,10 17,10 Z M17,13 C9.26769231,13 3,19.2676923 3,27 C3,34.7317692 9.26769231,41 17,41 C24.7317692,41 31,34.7317692 31,27 C31,19.2676923 24.7317692,13 17,13 Z" id="形状结合" stroke="#979797" stroke-width="0.5" fill="#878999"></path>
                        <path d="M17.0002893,18 L26,27.0002893 L17.0002893,36 L8,27.0002893 L17.0002893,18 Z M17.0003182,22.498927 L12.5,26.997854 L17.0003182,31.4967811 L21.5,26.997854 L17.0003182,22.498927 Z" id="形状结合" fill="#024FFD"></path>
                        <path d="M34,0 C39.5226923,0 44,4.47692308 44,10 C44,15.5226923 39.5226923,20 34,20 C28.4769231,20 24,15.5226923 24,10 C24,4.47692308 28.4769231,0 34,0 Z M34,3 C30.1340312,3 27,6.13403125 27,10 C27,13.8659688 30.1340312,17 34,17 C37.8659688,17 41,13.8659688 41,10 C41,6.13403125 37.8659688,3 34,3 Z" id="形状结合" fill="#878999"></path>
                        <polygon id="路径" fill="#024FFD" points="34.0002828 6 38 10 34.0002828 14 30 10"></polygon>
                    </g>
                </g>
            </g>
        </g>
    </g>
</svg>