<?xml version="1.0" encoding="UTF-8"?>
<svg width="44px" height="44px" viewBox="0 0 44 44" version="1.1" xmlns="http://www.w3.org/2000/svg" xmlns:xlink="http://www.w3.org/1999/xlink">
    <title>icon_yao4</title>
    <g id="Febit" stroke="none" stroke-width="1" fill="none" fill-rule="evenodd">
        <g id="1-首页" transform="translate(-453.000000, -882.000000)">
            <g id="快捷入口1" transform="translate(0.000000, 744.000000)">
                <g id="在线客服" transform="translate(431.000000, 138.000000)">
                    <g id="icon_yao4" transform="translate(22.000000, 0.000000)">
                        <path d="M0,0 L44,0 L44,44 L0,44 L0,0 Z" id="矩形"></path>
                        <g id="icon_yao" transform="translate(1.000000, 1.000000)">
                            <path d="M21.8212212,4.52462687 C21.606218,4.51692537 21.3957074,4.49253731 21.1794206,4.49253731 C11.6088897,4.49253731 3.85080374,12.2505075 3.85080374,21.8208955 C3.85080374,31.3906418 11.6088897,39.1492537 21.1794206,39.1492537 C30.7493097,39.1492537 38.5080374,31.3906418 38.5080374,21.8208955 C38.5080374,21.6039701 38.483649,21.3934627 38.4753056,21.1791045 L42.3421544,21.1791045 C42.3485724,21.3928209 42.3581994,21.6052537 42.3581994,21.8208955 C42.3581994,33.5175373 32.876237,43 21.1794206,43 C9.48196242,43 0,33.5175373 0,21.8208955 C0,10.1236119 9.48196242,0.641791045 21.1794206,0.641791045 C21.3944238,0.641791045 21.6075016,0.65141791 21.8212212,0.657835821 L21.8212212,4.52462687 Z" id="路径" fill="#878999"></path>
                            <path d="M21.8212212,0.641791045 C22.8846848,0.641791045 23.7466231,1.50371642 23.7466231,2.56716418 C23.7466231,3.62997015 22.8846848,4.49253731 21.8212212,4.49253731 C20.7577576,4.49253731 19.8958193,3.62997015 19.8958193,2.56716418 C19.8958193,1.50371642 20.7577576,0.641791045 21.8212212,0.641791045 Z" id="路径" fill="#878999"></path>
                            <path d="M40.4334393,19.2537313 C41.4962611,19.2537313 42.3581994,20.1156567 42.3581994,21.1791045 C42.3581994,22.2419104 41.4962611,23.1044776 40.4334393,23.1044776 C39.3699757,23.1044776 38.5080374,22.2419104 38.5080374,21.1791045 C38.5080374,20.1156567 39.3699757,19.2537313 40.4334393,19.2537313 Z" id="路径" fill="#878999"></path>
                            <path d="M21.789773,31.8687761 C16.230496,31.8623582 11.7250556,27.3807313 11.7186376,21.8497761 C11.7186376,20.8928657 12.4984253,20.1169403 13.4611263,20.1169403 C14.4225436,20.1169403 15.2023314,20.8928657 15.2023314,21.8497761 C15.2787057,25.4701194 18.290676,28.3427761 21.9296855,28.2670448 C25.4602307,28.1932388 28.3053329,25.3629403 28.3797818,21.8497761 C28.3797818,20.8928657 29.1595695,20.1169403 30.1216287,20.1169403 C31.0836878,20.1169403 31.8634756,20.8928657 31.8634756,21.8497761 C31.8570576,27.3813731 27.3503336,31.8642836 21.789773,31.8687761 Z" id="路径" fill="#024FFD"></path>
                            <path d="M29.5221869,5.7761194 L41.0752399,5.7761194 C42.1380618,5.7761194 43,6.63804478 43,7.70149254 C43,8.7649403 42.1380618,9.62686567 41.0752399,9.62686567 L29.5221869,9.62686567 C28.4593651,9.62686567 27.5974268,8.7649403 27.5974268,7.70149254 C27.5974268,6.63804478 28.4593651,5.7761194 29.5221869,5.7761194 Z" id="路径" fill="#024FFD"></path>
                            <path d="M35.2990343,0 C36.3624979,0 37.2244362,0.861925373 37.2244362,1.92537313 L37.2244362,13.4776119 C37.2244362,14.5410597 36.3624979,15.4029851 35.2990343,15.4029851 C34.2355707,15.4029851 33.3736324,14.5410597 33.3736324,13.4776119 L33.3736324,1.92537313 C33.3736324,0.861925373 34.2355707,0 35.2990343,0 Z" id="路径" fill="#024FFD"></path>
                        </g>
                    </g>
                </g>
            </g>
        </g>
    </g>
</svg>