<?xml version="1.0" encoding="UTF-8"?>
<svg width="45px" height="44px" viewBox="0 0 45 44" version="1.1" xmlns="http://www.w3.org/2000/svg" xmlns:xlink="http://www.w3.org/1999/xlink">
    <title>icon_kefu4</title>
    <g id="Saas设计规范3.0" stroke="none" stroke-width="1" fill="none" fill-rule="evenodd">
        <g id="6.3-首页快捷入口图标规范" transform="translate(-885.000000, -416.000000)">
            <g id="币昇" transform="translate(260.000000, 416.000000)">
                <g id="icon_kefu4" transform="translate(625.000000, 0.000000)">
                    <path d="M0,0 L44,0 L44,44 L0,44 L0,0 Z" id="矩形"></path>
                    <g id="icon_kefu" transform="translate(1.000000, 1.000000)" fill-rule="nonzero" stroke-width="1.5">
                        <path d="M40.5854492,13.802832 C39.3130859,9.95214844 36.8439453,6.50039062 33.5895508,4.04384766 C30.0832031,1.39833984 25.9049805,0 21.5,0 C17.0950195,0 12.9167969,1.39833984 9.41044922,4.04384766 C6.15605469,6.49619141 3.68691406,9.94794922 2.41455078,13.802832 C0.986816406,14.3487305 0,15.7344727 0,17.2923828 L0,22.9025391 C0,24.6536133 1.24296875,26.1905273 2.95625,26.5558594 C3.21660156,26.6104492 3.47695313,26.6398437 3.73730469,26.6398437 C5.79912109,26.6398437 7.47460938,24.9643555 7.47460938,22.9025391 L7.47460938,17.2923828 C7.47460938,15.4783203 6.17285156,13.9624023 4.45537109,13.6264648 C7.11347656,6.64736328 13.9456055,1.86865234 21.4958008,1.86865234 C29.0459961,1.86865234 35.878125,6.64316406 38.5362305,13.6264648 C36.81875,13.9624023 35.5169922,15.4783203 35.5169922,17.2923828 L35.5169922,22.9025391 C35.5169922,24.5402344 36.5751953,25.9301758 38.0449219,26.434082 C35.6009766,31.7208984 30.7508789,35.5379883 25.0399414,36.6633789 C24.5444336,35.1726562 23.1460937,34.1144531 21.5,34.1144531 C19.4381836,34.1144531 17.7626953,35.7899414 17.7626953,37.8517578 C17.7626953,39.9135742 19.4381836,41.5890625 21.5,41.5890625 C23.3266602,41.5890625 24.8467773,40.2705078 25.1743164,38.5362305 C31.8132812,37.3100586 37.4192383,32.7916992 40.0353516,26.5474609 L40.04375,26.5474609 C41.7570312,26.1779297 43,24.6410156 43,22.8941406 L43,17.2923828 C43,15.7344727 42.0131836,14.3487305 40.5854492,13.802832 Z M5.61015625,17.2923828 L5.61015625,22.9025391 C5.61015625,23.9355469 4.7703125,24.7711914 3.74150391,24.7711914 C3.61132813,24.7711914 3.48115234,24.7585938 3.35097656,24.7291992 C2.49433594,24.5444336 1.87285156,23.7759766 1.87285156,22.9025391 L1.87285156,17.2923828 C1.87285156,16.4189453 2.49433594,15.6504883 3.35097656,15.4657227 C3.48115234,15.4363281 3.61132813,15.4237305 3.74150391,15.4237305 C4.7703125,15.4237305 5.61015625,16.2635742 5.61015625,17.2923828 Z M21.5,39.7288086 C20.4711914,39.7288086 19.6313477,38.8889648 19.6313477,37.8601562 C19.6313477,36.8313477 20.4711914,35.9915039 21.5,35.9915039 C22.5036133,35.9915039 23.3224609,36.780957 23.3644531,37.7845703 C23.3644531,37.8097656 23.3686523,37.8307617 23.3686523,37.8601562 C23.3686523,38.8889648 22.5288086,39.7288086 21.5,39.7288086 Z M41.1313477,22.9025391 C41.1313477,23.7759766 40.5098633,24.5444336 39.6532227,24.7291992 C39.5608398,24.7501953 39.4600586,24.762793 39.3382813,24.7669922 C39.3130859,24.7669922 39.2878906,24.7711914 39.2626953,24.7711914 C38.2338867,24.7711914 37.394043,23.9313477 37.394043,22.9025391 L37.394043,17.2923828 C37.394043,16.2635742 38.2338867,15.4237305 39.2626953,15.4237305 C39.3928711,15.4237305 39.5230469,15.4363281 39.6532227,15.4657227 C40.5098633,15.6504883 41.1313477,16.4189453 41.1313477,17.2923828 L41.1313477,22.9025391 L41.1313477,22.9025391 Z" id="形状" stroke="#878999" fill="#878999"></path>
                        <path d="M28.6680664,26.8708008 C29.0543945,26.5264648 29.0837891,25.934375 28.7394531,25.5522461 C28.3951172,25.165918 27.8030273,25.1365234 27.4208984,25.4808594 C21.1598633,31.0868164 15.8646484,25.7706055 15.6336914,25.53125 C15.2767578,25.1575195 14.684668,25.1449219 14.3109375,25.5018555 C13.937207,25.8587891 13.9246094,26.4508789 14.281543,26.8246094 C14.3277344,26.8708008 17.3133789,29.9152344 21.5587891,29.9152344 C23.6835938,29.9110352 26.1233398,29.1467773 28.6680664,26.8708008 Z" id="路径" stroke="#024FFD" fill="#024FFD"></path>
                    </g>
                </g>
            </g>
        </g>
    </g>
</svg>