<?xml version="1.0" encoding="UTF-8"?>
<svg width="66px" height="66px" viewBox="0 0 66 66" version="1.1" xmlns="http://www.w3.org/2000/svg" xmlns:xlink="http://www.w3.org/1999/xlink">
    <title>icon_qiquan备份</title>
    <g id="页面-1" stroke="none" stroke-width="1" fill="none" fill-rule="evenodd">
        <g id="icon_qiquan备份">
            <rect id="矩形" x="0" y="0" width="66" height="66"></rect>
            <path d="M55.3020984,10.6989283 C61.2230718,16.6205626 64.2820069,24.0542532 64.5,33 C64.2820069,41.9457468 61.2230718,49.3794374 55.3020984,55.3010717 C49.3811251,61.222706 41.9482643,64.2819826 33.003516,64.5 C24.0587677,64.2819826 16.6259069,61.222706 10.7049336,55.3010717 C4.77692823,49.3794374 1.68986494,41.9457468 1.5,33 C1.68986494,24.0542532 4.77692823,16.6205626 10.6979016,10.6989283 C16.6188749,4.77729404 24.0587677,1.71801741 33.003516,1.5 C41.9482643,1.71801741 49.3811251,4.77729404 55.3020984,10.6989283 Z M52.1236187,52.1222371 C57.1937158,47.051574 59.8377609,40.6587408 60.062786,33 C59.8377609,25.348292 57.1937158,18.948426 52.1236187,13.8777629 C47.0464896,8.8070998 40.6543699,6.16275954 33.003516,5.93770931 C25.317502,6.15572672 18.9535104,8.8070998 13.8834133,13.8777629 C8.77815604,18.948426 6.13411095,25.348292 5.94424601,33 C6.13411095,40.6868721 8.77815604,47.051574 13.8834133,52.1222371 C18.9535104,57.1929002 25.3456301,59.8372405 33.003516,60.0622907 C40.6543699,59.8724046 47.0464896,57.2280643 52.1236187,52.1222371 Z" id="形状" stroke="#878999" stroke-width="1.5" fill="#878999" fill-rule="nonzero"></path>
            <path d="M17.4012,34.5 L23.8548,30.8112 C24.9507172,30.1843474 26.3449168,30.513752 27.0444,31.5648 L31.6332,38.448 C31.8546916,38.9768175 32.3819655,39.3118601 32.9547884,39.2877695 C33.5276114,39.2636788 34.0248919,38.8855474 34.2012,38.34 L39.6348,28.356 C39.9972692,27.6915308 40.651953,27.2369881 41.4012,27.1296 L48.6012,26.1" id="路径" stroke="#D49D47" stroke-width="6" stroke-linecap="round"></path>
        </g>
    </g>
</svg>