<?xml version="1.0" encoding="UTF-8"?>
<svg width="44px" height="44px" viewBox="0 0 44 44" version="1.1" xmlns="http://www.w3.org/2000/svg" xmlns:xlink="http://www.w3.org/1999/xlink">
    <title>icon_liao1</title>
    <g id="Saas设计规范3.0" stroke="none" stroke-width="1" fill="none" fill-rule="evenodd">
        <g id="6.3-首页快捷入口图标规范" transform="translate(-885.000000, -146.000000)">
            <g id="榴莲" transform="translate(260.000000, 146.000000)">
                <g id="icon_liao1" transform="translate(625.000000, 0.000000)">
                    <path d="M0,0 L44,0 L44,44 L0,44 L0,0 Z" id="矩形"></path>
                    <g id="icon_liao" transform="translate(1.000000, 2.000000)" fill-rule="nonzero">
                        <path d="M12.8192495,24.8946406 C12.7773202,25.1364632 12.641849,25.3515472 12.4426766,25.4925156 C12.2435041,25.6334839 11.9969689,25.6887727 11.7573761,25.6462031 C11.4760813,25.5961953 11.1942137,25.5383828 10.9152105,25.4727656 C9.77427671,26.1540859 8.43826981,26.690586 6.93755371,27.0698359 C5.15181896,27.5210625 3.12603837,27.75 0.916642781,27.75 C0.504645063,27.75 0.143296907,27.472534 0.0333452465,27.0718589 C-0.0766064143,26.6711838 0.0918565917,26.2457112 0.445144658,26.0318125 C2.43196792,24.8287344 3.80607276,23.7193125 4.78201087,22.5194141 C3.43855626,21.4348516 2.31853337,20.1259766 1.51647091,18.6919375 C0.509882569,16.8983047 0,14.9665 0,12.95 C0,11.1849844 0.394729318,9.47344533 1.17444857,7.86249999 C1.91922082,6.31919531 2.98682324,4.93458591 4.34345461,3.74798438 C5.6897737,2.57005467 7.25665999,1.64592188 8.99885418,1.00189064 C10.7951876,0.337046861 12.7020911,0 14.6662847,0 C17.1523918,0 19.6087081,0.558757827 21.7702664,1.61614842 C23.8768261,2.64723436 25.6826124,4.13735156 26.9916929,5.92578127 C27.1944801,6.19114924 27.2391821,6.54644146 27.1085456,6.85452838 C26.9779091,7.16261531 26.6923663,7.37531055 26.3621262,7.41052168 C26.0318861,7.4457328 25.7085998,7.29795262 25.5170438,7.02421875 C23.1452306,3.78440625 19.0887998,1.85000002 14.6662847,1.85000002 C7.59094816,1.85000002 1.83328561,6.82939064 1.83328561,12.95 C1.83328561,16.3074609 3.56602695,19.4498594 6.58837008,21.5715781 C6.99944723,21.8603754 7.10468276,22.4286795 6.82469205,22.8477891 C6.1469493,23.8623984 5.28473215,24.7911563 4.15468346,25.7069063 C6.61300484,25.3976094 8.69235176,24.7200469 10.2684045,23.7034141 C10.4825798,23.5657108 10.7437683,23.5238411 10.9896878,23.5877891 C11.3460327,23.68 11.7118304,23.7594922 12.0767688,23.8242422 C12.5743568,23.9134855 12.9064878,24.3923026 12.8192495,24.8946406 L12.8192495,24.8946406 Z" id="路径" stroke="#878999" stroke-width="1.32" fill="#878999"></path>
                        <path d="M27.6662848,12 C29.6304784,12 31.5373818,12.3370469 33.3337153,13.0016016 C35.0759095,13.6459219 36.6419364,14.5700547 37.9891149,15.7476953 C39.3457462,16.9342969 40.4122028,18.3203516 41.1592667,19.8633672 C41.9378402,21.4731563 42.3337153,23.1846953 42.3337153,24.9508672 C42.3337153,26.9673672 41.8238327,28.8991719 40.8183902,30.6928047 C40.0143226,32.1268438 38.895159,33.4357188 37.5528502,34.5202813 C38.5287883,35.7207579 39.9017474,36.8298907 41.8897164,38.0326797 C42.2418054,38.2471267 42.4092664,38.6719593 42.2993412,39.0718594 C42.1893777,39.4725765 41.8279677,39.75 41.4159267,39.75 C39.2065311,39.75 37.1807505,39.5210625 35.3950158,39.069836 C33.8942996,38.690586 32.5591521,38.154086 31.4173589,37.4727656 C30.1870074,37.7577032 28.928621,37.9010291 27.6662848,37.9 C25.7020911,37.9 23.7951877,37.5629532 21.9988542,36.8983985 C20.25666,36.2540782 18.6906331,35.3299454 17.3434546,34.1523047 C15.9868233,32.9654141 14.9192209,31.5808047 14.1744486,30.0375 C13.3958751,28.4277109 13,26.7161719 13,24.95 C13,23.1838282 13.3947293,21.4734453 14.1744486,19.8625 C14.9192209,18.3191954 15.9868233,16.934586 17.3434546,15.7479844 C18.6897737,14.5700547 20.25666,13.6459219 21.9988542,13.0018906 C23.7951876,12.3370469 25.7020911,12 27.6662848,12 Z M27.8341449,14 C20.7588083,14 15,18.9793906 15,25.1 C15,31.2206094 20.7576626,36.2 27.8329992,36.2 C29.0733519,36.2016648 30.3090114,36.0462847 31.5110284,35.7375 C31.7569344,35.6732673 32.0182365,35.7151553 32.2323116,35.853125 C33.8083643,36.8700469 35.8877112,37.5476094 38.3457462,37.8569062 C37.215411,36.9411562 36.3534803,36.0126875 35.6757376,34.9977891 C35.3957469,34.5786794 35.5009824,34.0103754 35.9120596,33.7215781 C38.9329705,31.5998594 40.6671441,28.4574609 40.6671441,25.1 C40.6671441,18.9793906 34.9094815,14 27.8341449,14 Z" id="形状结合" stroke="#878999" stroke-width="1.32" fill="#878999"></path>
                        <path d="M10.9997135,12.95 C10.9997135,13.9717268 10.1789236,14.8 9.16642794,14.8 C8.15393226,14.8 7.33314234,13.9717268 7.33314234,12.95 C7.33314234,11.9282732 8.15393226,11.1 9.16642794,11.1 C9.65264551,11.1 10.1189489,11.2949102 10.4627566,11.6418525 C10.8065644,11.9887948 10.9997135,12.4593495 10.9997135,12.95 L10.9997135,12.95 Z" id="路径" stroke="#024FFD" stroke-width="1.32" fill="#024FFD"></path>
                        <path d="M19.9994271,23.35 C18.9869314,23.35 18.1661415,24.1782732 18.1661415,25.2 C18.1661415,26.2217268 18.9869314,27.05 19.9994271,27.05 C21.0119228,27.05 21.8327127,26.2217268 21.8327127,25.2 C21.8327127,24.1782732 21.0119228,23.35 19.9994271,23.35 L19.9994271,23.35 Z" id="路径" stroke="#024FFD" stroke-width="0.88" fill="#024FFD"></path>
                        <path d="M27.3325695,23.35 C26.5910747,23.35 25.9225922,23.800738 25.6388344,24.4920356 C25.3550766,25.1833332 25.5119247,25.9790512 26.0362407,26.5081475 C26.5605567,27.0372439 27.3490856,27.195522 28.0341374,26.9091772 C28.7191893,26.6228323 29.165855,25.9482552 29.165855,25.2 C29.165855,24.1782732 28.3450651,23.35 27.3325695,23.35 L27.3325695,23.35 Z" id="路径" stroke="#024FFD" stroke-width="0.88" fill="#024FFD"></path>
                        <path d="M34.6657118,23.35 C33.6532161,23.35 32.8324262,24.1782732 32.8324262,25.2 C32.8324262,26.2217268 33.6532161,27.05 34.6657118,27.05 C35.6782075,27.05 36.4989974,26.2217268 36.4989974,25.2 C36.4989974,24.1782732 35.6782075,23.35 34.6657118,23.35 Z" id="路径" stroke="#024FFD" stroke-width="0.88" fill="#024FFD"></path>
                    </g>
                </g>
            </g>
        </g>
    </g>
</svg>