<?xml version="1.0" encoding="UTF-8"?>
<svg width="44px" height="44px" viewBox="0 0 44 44" version="1.1" xmlns="http://www.w3.org/2000/svg" xmlns:xlink="http://www.w3.org/1999/xlink">
    <title>icon_yongxu2</title>
    <g id="Joybit蓝色" stroke="none" stroke-width="1" fill="none" fill-rule="evenodd">
        <g id="0-图标下载" transform="translate(-50.000000, -367.000000)">
            <g id="快捷入口" transform="translate(23.500000, 350.000000)">
                <g id="永续合约" transform="translate(0.000000, 17.000000)">
                    <g id="icon_yongxu2" transform="translate(26.500000, 0.000000)">
                        <path d="M0,0 L44,0 L44,44 L0,44 L0,0 Z" id="矩形"></path>
                        <g id="icon_yongxu" transform="translate(1.000000, 1.000000)">
                            <path d="M12.982,6.28624723 L12.982,10.4462472 L4.94152092,14.0038071 C4.47739289,14.2086135 4.11609893,14.5884408 3.93462013,15.0596907 C3.75314134,15.5309405 3.76635155,16.0549897 3.97134326,16.5164975 L3.97134326,16.5164975 L12.1845412,35.0824873 C12.3558069,35.4696511 12.6404041,35.7713873 12.9820684,35.9659411 L12.9827646,37.4365482 L20.982,37.4362472 L16.2353026,39.536802 C14.8501596,40.1495868 13.2783142,40.1869974 11.865587,39.6408031 C10.4528597,39.0946088 9.31498573,38.0095558 8.70230772,36.6243655 L0.489109753,18.0583756 C-0.785808978,15.1724901 0.517467235,11.7993046 3.4015463,10.5203046 L12.982,6.28624723 Z" id="矩形_1250" fill="#878999"></path>
                            <path d="M37.0944397,0 C40.2483501,0 42.8050996,2.55674953 42.8050996,5.7106599 L42.8050996,35.5329949 C42.8050996,38.6869053 40.2483501,41.2436548 37.0944397,41.2436548 L15.5208356,41.2436548 C12.3669253,41.2436548 9.81017574,38.6869053 9.81017574,35.5329949 L9.81017574,5.7106599 C9.81017574,2.55674953 12.3669253,0 15.5208356,0 L37.0944397,0 Z M37.0944397,3.8071066 L15.5208356,3.8071066 C14.4695322,3.8071066 13.6172823,4.65935644 13.6172823,5.7106599 L13.6172823,5.7106599 L13.6172823,35.5329949 C13.6172823,36.5842984 14.4695322,37.4365482 15.5208356,37.4365482 L15.5208356,37.4365482 L37.0944397,37.4365482 C38.1457432,37.4365482 38.997993,36.5842984 38.997993,35.5329949 L38.997993,35.5329949 L38.997993,5.7106599 C38.997993,4.65935644 38.1457432,3.8071066 37.0944397,3.8071066 L37.0944397,3.8071066 Z" id="矩形_1250_拷贝" fill="#878999"></path>
                            <rect id="矩形_1251" fill="#024FFD" fill-rule="nonzero" x="20.5969778" y="10.1522843" width="13.9593909" height="3.8071066" rx="1.9035533"></rect>
                            <rect id="矩形_1251_拷贝" fill="#024FFD" fill-rule="nonzero" x="26.9421554" y="17.1319797" width="7.6142132" height="3.8071066" rx="1.9035533"></rect>
                        </g>
                    </g>
                </g>
            </g>
        </g>
    </g>
</svg>