<?xml version="1.0" encoding="UTF-8"?>
<svg width="44px" height="44px" viewBox="0 0 44 44" version="1.1" xmlns="http://www.w3.org/2000/svg" xmlns:xlink="http://www.w3.org/1999/xlink">
    <title>icon_zhinan4</title>
    <g id="Febit" stroke="none" stroke-width="1" fill="none" fill-rule="evenodd">
        <g id="1-首页" transform="translate(-654.000000, -882.000000)">
            <g id="快捷入口1" transform="translate(0.000000, 744.000000)">
                <g id="新人指南" transform="translate(632.000000, 138.000000)">
                    <g id="icon_zhinan4" transform="translate(22.000000, 0.000000)">
                        <path d="M0,0 L44,0 L44,44 L0,44 L0,0 Z" id="矩形"></path>
                        <g id="icon_zhinan2" transform="translate(1.000000, 1.000000)" fill-rule="nonzero">
                            <path d="M35.8680656,6.13261889 C39.8153812,10.0803751 41.8546713,15.0361688 42,21 C41.8546713,26.9638312 39.8153812,31.9196249 35.8680656,35.8673811 C31.9207501,39.8151373 26.9655095,41.8546551 21.002344,42 C15.0391785,41.8546551 10.0839379,39.8151373 6.13662239,35.8673811 C2.18461882,31.9196249 0.126576627,26.9638312 0,21 C0.126576627,15.0361688 2.18461882,10.0803751 6.13193437,6.13261889 C10.0792499,2.18486269 15.0391785,0.145344943 21.002344,0 C26.9655095,0.145344943 31.9207501,2.18486269 35.8680656,6.13261889 Z M33.7490791,33.7481581 C37.1291439,30.367716 38.8918406,26.1058272 39.0418574,21 C38.8918406,15.8988614 37.1291439,11.632284 33.7490791,8.25184193 C30.3643264,4.87139987 26.1029133,3.10850636 21.002344,2.95847287 C15.8783346,3.10381782 11.6356736,4.87139987 8.25560888,8.25184193 C4.85210403,11.632284 3.0894073,15.8988614 2.96283067,21 C3.0894073,26.1245814 4.85210403,30.367716 8.25560888,33.7481581 C11.6356736,37.1286001 15.8970867,38.8914936 21.002344,39.0415271 C26.1029133,38.9149364 30.3643264,37.1520429 33.7490791,33.7481581 Z" id="形状" stroke="#878999" stroke-width="0.5" fill="#878999"></path>
                            <path d="M30.2611899,11.7401206 L26.25293,20.6202277 C26.3138743,21.3563295 26.2107378,22.0924313 25.9388325,22.8050904 C25.6856792,23.5177495 25.2684451,24.1507033 24.7011943,24.7180174 C24.1339435,25.2853315 23.5057484,25.683858 22.7884809,25.9557937 C22.0759013,26.2089752 21.3586338,26.3121232 20.603862,26.2699263 L11.7013059,30.2833222 L15.751758,21.3797723 C15.6908137,20.6436705 15.7939502,19.9075687 16.0658556,19.1949096 C16.3190088,18.4822505 16.7362429,17.8492967 17.3034937,17.2819826 C17.8707445,16.7146685 18.4989396,16.316142 19.2162072,16.0442063 C19.9287867,15.7910248 20.6460542,15.6878768 21.400826,15.7300737 L30.2611899,11.7401206 Z M21.002344,18.7119893 C20.392901,18.7119893 19.8678424,18.9417281 19.4084161,19.4058942 C18.9443018,19.8700603 18.7145887,20.4139317 18.7145887,21 C18.7145887,21.6095111 18.9443018,22.1346283 19.4084161,22.5941058 C19.8725304,23.0582719 20.4163411,23.2880107 21.002344,23.2880107 C21.611787,23.2880107 22.1555977,23.0770261 22.6384641,22.6363027 C23.0791383,22.1533825 23.2900993,21.6095111 23.2900993,21 C23.2900993,20.3904889 23.0603862,19.8653717 22.5962719,19.4058942 C22.1321576,18.9417281 21.5883469,18.7119893 21.002344,18.7119893 Z" id="形状结合" fill="#024FFD"></path>
                        </g>
                    </g>
                </g>
            </g>
        </g>
    </g>
</svg>