<?xml version="1.0" encoding="UTF-8"?>
<svg width="44px" height="44px" viewBox="0 0 44 44" version="1.1" xmlns="http://www.w3.org/2000/svg" xmlns:xlink="http://www.w3.org/1999/xlink">
    <title>icon_shandian2</title>
    <g id="Joybit蓝色" stroke="none" stroke-width="1" fill="none" fill-rule="evenodd">
        <g id="0-图标下载" transform="translate(-197.000000, -367.000000)">
            <g id="快捷入口" transform="translate(23.500000, 350.000000)">
                <g id="快捷合约" transform="translate(148.000000, 17.000000)">
                    <g id="icon_shandian2" transform="translate(25.500000, 0.000000)">
                        <path d="M0,0 L44,0 L44,44 L0,44 L0,0 Z" id="矩形"></path>
                        <g id="icon_shandian" transform="translate(1.000000, 1.000000)">
                            <path d="M31.7258883,16.4974619 C30.6745849,16.4974619 29.822335,15.6452121 29.822335,14.5939086 L29.822335,6.34517766 C29.822335,4.94343972 28.6860019,3.8071066 27.284264,3.8071066 L6.34517766,3.8071066 C4.94343972,3.8071066 3.8071066,4.94343972 3.8071066,6.34517766 L3.8071066,31.7258883 C3.8071066,33.1276263 4.94343972,34.2639594 6.34517766,34.2639594 L14.5939086,34.2639594 C15.6452121,34.2639594 16.4974619,35.1162092 16.4974619,36.1675127 C16.4974619,37.2188161 15.6452121,38.071066 14.5939086,38.071066 L5.7106599,38.071066 C2.55674953,38.071066 0,35.5143165 0,32.3604061 L0,5.7106599 C0,2.55674953 2.55674953,0 5.7106599,0 L27.9187817,0 C31.0726921,0 33.6294416,2.55674953 33.6294416,5.7106599 L33.6294416,14.5939086 C33.6294416,15.0987624 33.4288893,15.5829386 33.0719038,15.9399241 C32.7149183,16.2969096 32.230742,16.4974619 31.7258883,16.4974619 Z" id="椭圆_592_拷贝_2" fill="#878999"></path>
                            <rect id="矩形_815" fill="#024FFD" fill-rule="nonzero" x="7.6142132" y="10.786802" width="13.9593909" height="3.8071066" rx="1.9035533"></rect>
                            <rect id="矩形_815_拷贝" fill="#024FFD" fill-rule="nonzero" x="7.6142132" y="17.7664975" width="7.6142132" height="3.8071066" rx="1.9035533"></rect>
                            <path d="M30.8756345,20.0888325 C37.1834553,20.0888325 42.2969543,25.2023315 42.2969543,31.5101523 C42.2969543,37.817973 37.1834553,42.9314721 30.8756345,42.9314721 C24.5678138,42.9314721 19.4543147,37.817973 19.4543147,31.5101523 C19.4543147,25.2023315 24.5678138,20.0888325 30.8756345,20.0888325 L30.8756345,20.0888325 Z M30.8692893,23.8895939 C35.0745032,23.8895939 38.4835025,27.2985933 38.4835025,31.5038071 C38.4835025,35.7090209 35.0745032,39.1180203 30.8692893,39.1180203 C26.6640755,39.1180203 23.2550761,35.7090209 23.2550761,31.5038071 C23.2568269,27.2993187 26.6648009,23.8913447 30.8692893,23.8895939 Z" id="椭圆_592_拷贝" fill="#878999"></path>
                            <path d="M29.6256345,32.5634518 L27.569797,32.5634518 C27.443159,32.5615995 27.3254384,32.4979078 27.2546021,32.3929182 C27.1837657,32.2879286 27.1687759,32.1549245 27.214467,32.036802 L29.2576142,26.6624365 C29.3118159,26.5131126 29.4540903,26.4140287 29.6129442,26.4149565 L33.0647208,26.4149565 C33.1925736,26.4137289 33.312514,26.4767448 33.3840257,26.5827352 C33.4555373,26.6887257 33.4690694,26.8235351 33.4200508,26.9416244 L32.2271574,29.8730964 L34.4670051,29.8730964 C34.6174593,29.8723963 34.7542132,29.9603688 34.815955,30.0975728 C34.8776968,30.2347767 34.8528436,30.3954725 34.7525381,30.5076142 L29.2639594,36.7829949 C29.1492582,36.9234568 28.9514037,36.9635183 28.791096,36.8787402 C28.6307883,36.7939621 28.5525295,36.6078791 28.6040609,36.4340102 L29.6256345,32.5634518 L29.6256345,32.5634518 L29.6256345,32.5634518 Z" id="形状_582" fill="#024FFD"></path>
                        </g>
                    </g>
                </g>
            </g>
        </g>
    </g>
</svg>