<?xml version="1.0" encoding="UTF-8"?>
<svg width="44px" height="44px" viewBox="0 0 44 44" version="1.1" xmlns="http://www.w3.org/2000/svg" xmlns:xlink="http://www.w3.org/1999/xlink">
    <title>icon_xin3</title>
    <g id="Saas设计规范3.0" stroke="none" stroke-width="1" fill="none" fill-rule="evenodd">
        <g id="6.3-首页快捷入口图标规范" transform="translate(-885.000000, -326.000000)">
            <g id="椰子" transform="translate(260.000000, 326.000000)">
                <g id="icon_xin3" transform="translate(625.000000, 0.000000)">
                    <path d="M0,0 L44,0 L44,44 L0,44 L0,0 Z" id="矩形"></path>
                    <g id="icon_xin" transform="translate(1.000000, 2.000000)">
                        <path d="M36.8020305,40.6091371 L11.4213198,40.6091371 C8.61784391,40.6091371 6.34517766,38.3364708 6.34517766,35.5329949 L6.34517766,27.9187817 L10.1522843,27.9187817 L10.1522843,34.2639594 C10.1522843,35.6656973 11.2886174,36.8020305 12.6903553,36.8020305 L35.5329949,36.8020305 C36.9347329,36.8020305 38.071066,35.6656973 38.071066,34.2639594 L38.071066,6.34517766 C38.071066,4.94343972 36.9347329,3.8071066 35.5329949,3.8071066 L12.6903553,3.8071066 C11.2886174,3.8071066 10.1522843,4.94343972 10.1522843,6.34517766 L10.1522843,7.6142132 L6.34517766,7.6142132 L6.34517766,5.07614213 C6.34517766,2.27266624 8.61784391,0 11.4213198,0 L36.8020305,0 C39.6055063,0 41.8781726,2.27266624 41.8781726,5.07614213 L41.8781726,35.5329949 C41.8781726,38.3364708 39.6055063,40.6091371 36.8020305,40.6091371 Z" id="矩形_819" fill="#878999"></path>
                        <circle id="椭圆_593" fill="#878999" fill-rule="nonzero" cx="8.24873096" cy="7.6142132" r="1.9035533"></circle>
                        <circle id="椭圆_593_拷贝_2" fill="#878999" fill-rule="nonzero" cx="8.24873096" cy="27.9187817" r="1.9035533"></circle>
                        <path d="M28.9593909,9.5748731 C25.6916244,10.7741117 18.6992386,13.2170051 15.6852792,14.3527919 C15.0444162,14.5939086 15.1522843,15.2284264 15.8439086,15.4885787 C17.9885787,16.2944162 21.5101523,17.6713198 21.6941624,17.8553299 C22.1256345,18.286802 23.2677665,21.2626904 24.0418782,23.356599 C24.5050761,24.6319797 25.2411168,24.1560914 25.4949239,23.464467 C26.6624365,20.2474619 28.9593909,13.8769036 30.069797,10.748731 C30.2918782,10.1269036 30.0380711,9.1751269 28.9593909,9.5748731 Z" id="多边形_3-2" fill="#D0A858"></path>
                        <rect id="矩形_820" fill="#D0A858" fill-rule="nonzero" x="0" y="11.4213198" width="11.4213198" height="3.8071066" rx="1.9035533"></rect>
                        <rect id="矩形_820_拷贝" fill="#D0A858" fill-rule="nonzero" x="0" y="19.6700508" width="11.4213198" height="3.8071066" rx="1.9035533"></rect>
                        <rect id="矩形_820_拷贝_2" fill="#878999" fill-rule="nonzero" x="16.4974619" y="27.9187817" width="15.2284264" height="3.8071066" rx="1.9035533"></rect>
                    </g>
                </g>
            </g>
        </g>
    </g>
</svg>