<?xml version="1.0" encoding="UTF-8"?>
<svg width="44px" height="44px" viewBox="0 0 44 44" version="1.1" xmlns="http://www.w3.org/2000/svg" xmlns:xlink="http://www.w3.org/1999/xlink">
    <title>icon_moni1</title>
    <g id="Saas设计规范3.0" stroke="none" stroke-width="1" fill="none" fill-rule="evenodd">
        <g id="6.3-首页快捷入口图标规范" transform="translate(-573.000000, -146.000000)">
            <g id="榴莲" transform="translate(260.000000, 146.000000)">
                <g id="icon_moni1" transform="translate(313.000000, 0.000000)">
                    <path d="M0,0 L44,0 L44,44 L0,44 L0,0 Z" id="矩形"></path>
                    <g id="icon_moni" transform="translate(1.000000, 2.000000)">
                        <path d="M27.9187817,19.035533 L27.9187817,5.7106599 C27.9187817,4.65935644 27.0665319,3.8071066 26.0152284,3.8071066 L5.7106599,3.8071066 C4.65935644,3.8071066 3.8071066,4.65935644 3.8071066,5.7106599 L3.8071066,34.2639594 C3.8071066,35.3152628 4.65935644,36.1675127 5.7106599,36.1675127 L34.8984772,36.1675127 L34.8984772,39.9746193 L5.7106599,39.9746193 C2.55674953,39.9746193 0,37.4178698 0,34.2639594 L0,5.7106599 C0,2.55674953 2.55674953,0 5.7106599,0 L26.0152284,0 C29.1691388,0 31.7258883,2.55674953 31.7258883,5.7106599 L31.7258883,19.035533 L27.9187817,19.035533 L27.9187817,19.035533 Z" id="矩形_1250_拷贝-2" fill="#878999"></path>
                        <path d="M33.6294416,10.786802 L36.1675127,10.786802 C39.3214231,10.786802 41.8781726,13.3435516 41.8781726,16.4974619 L41.8781726,34.2639594 C41.8781726,37.4178698 39.3214231,39.9746193 36.1675127,39.9746193 L35.5329949,39.9746193 C31.3277811,39.9746193 27.9187817,36.5656199 27.9187817,32.3604061 L27.9187817,16.4974619 C27.9187817,14.9829008 28.5204388,13.5303721 29.5913953,12.4594156 C30.6623518,11.3884591 32.1148805,10.786802 33.6294416,10.786802 Z M32.9949239,14.5939086 L36.8020305,14.5939086 C37.5020316,14.5959992 38.0689754,15.162943 38.071066,15.8629442 L38.071066,34.8984772 C38.0689754,35.5984783 37.5020316,36.1654221 36.8020305,36.1675127 C33.9985546,36.1675127 31.7258883,33.8948464 31.7258883,31.0913706 L31.7258883,15.8629442 C31.7279789,15.162943 32.2949227,14.5959992 32.9949239,14.5939086 L32.9949239,14.5939086 Z" id="矩形_1250_拷贝_2" fill="#878999"></path>
                        <rect id="矩形_1252" fill="#024FFD" fill-rule="nonzero" x="8.24873096" y="27.9187817" width="15.2284264" height="3.8071066" rx="1.9035533"></rect>
                        <rect id="矩形_1252_拷贝" fill="#024FFD" fill-rule="nonzero" x="8.24873096" y="20.3045685" width="15.2284264" height="3.8071066" rx="1.9035533"></rect>
                    </g>
                </g>
            </g>
        </g>
    </g>
</svg>