<?xml version="1.0" encoding="UTF-8"?>
<svg width="30px" height="30px" viewBox="0 0 30 30" version="1.1" xmlns="http://www.w3.org/2000/svg" xmlns:xlink="http://www.w3.org/1999/xlink">
    <title>icon_notice</title>
    <g id="中文模版(定)" stroke="none" stroke-width="1" fill="none" fill-rule="evenodd">
        <g id="04-首页" transform="translate(-30.000000, -471.000000)" fill-rule="nonzero">
            <g id="公告" transform="translate(0.000000, 456.000000)">
                <g id="icon_notice" transform="translate(30.000000, 15.000000)">
                    <rect id="矩形" fill="#111111" opacity="0" x="0" y="0" width="30" height="30"></rect>
                    <g id="编组-4" transform="translate(1.000000, 1.000000)">
                        <path d="M14.0359777,0 C15.9441385,0 17.4909899,1.5043288 17.4909899,3.35999635 C17.4909899,3.43964409 17.4881743,3.51862226 17.482543,3.59690044 C17.5044425,3.61023086 17.5260916,3.62459606 17.5472715,3.63999604 L24.2901095,8.53999072 L25.4807196,8.54002115 C26.8720849,8.54002115 28,9.63691996 28,10.9900185 L28,25.5500027 C28,26.9031012 26.8720849,28 25.4807196,28 L2.51928045,28 C1.12791508,28 0,26.9030708 0,25.5499722 L0,10.9899881 C0,9.63688953 1.12791508,8.53999072 2.51928045,8.53999072 L4.21370279,8.53996028 L10.622543,3.88274361 C10.5977399,3.72813268 10.584004,3.57203268 10.5814346,3.4155702 L10.5809654,3.35999635 C10.5809654,1.5043288 12.127848,0 14.0359777,0 Z M25.4807196,10.3599887 L2.51928045,10.3599887 C2.16788827,10.3599887 1.88185028,10.6320754 1.87174525,10.9714229 L1.87146369,25.5499722 C1.87146369,25.8916936 2.15124469,26.1698672 2.50016536,26.1796976 L25.4807196,26.1799715 C25.8321117,26.1799715 26.1181497,25.9078849 26.1282547,25.5685374 L26.1285363,10.9899881 C26.1285363,10.6482667 25.8487553,10.3700931 25.4998346,10.3602627 L25.4807196,10.3599887 Z M16.8036603,5.37158112 C16.1735196,6.19018458 15.1683978,6.7199927 14.0359777,6.7199927 C12.9965989,6.7199927 12.0644022,6.27363666 11.4310078,5.56727656 L7.34019218,8.53996028 L21.1636514,8.53996028 L16.8036603,5.37158112 Z M14.0359777,1.81999802 C13.1614078,1.81999802 12.4524291,2.50946684 12.4524291,3.35999635 C12.4524291,4.21052586 13.1614078,4.89999467 14.0359777,4.89999467 C14.9105475,4.89999467 15.6195263,4.21052586 15.6195263,3.35999635 C15.6195263,2.50946684 14.9105475,1.81999802 14.0359777,1.81999802 Z" id="形状结合" fill="#333333"></path>
                        <path d="M22.1210324,19.9149784 C22.6378279,19.9149784 23.0567642,20.3224083 23.0567642,20.8249774 C23.0567642,21.3203638 22.6497162,21.7233199 22.1431196,21.7347329 L22.1210324,21.7349764 L5.83035084,21.7349764 C5.31352402,21.7349764 4.89461899,21.3275464 4.89461899,20.8249774 C4.89461899,20.3295909 5.30163575,19.9266349 5.8082324,19.9152218 L5.83031955,19.9149784 L22.1210324,19.9149784 Z" id="路径" fill="#024FFD"></path>
                        <path d="M14.4853855,14.734984 C15.0022123,14.734984 15.4211173,15.142414 15.4211173,15.644983 C15.4211173,16.1403694 15.0141006,16.5433255 14.5074726,16.5547385 L14.4853855,16.554982 L5.83031955,16.554982 C5.31355531,16.554982 4.89458771,16.147552 4.89458771,15.644983 C4.89458771,15.1495966 5.30166704,14.7466405 5.8082324,14.7352275 L5.83031955,14.734984 L14.4853855,14.734984 Z" id="路径" fill="#024FFD"></path>
                    </g>
                </g>
            </g>
        </g>
    </g>
</svg>