<?xml version="1.0" encoding="UTF-8"?>
<svg width="44px" height="44px" viewBox="0 0 44 44" version="1.1" xmlns="http://www.w3.org/2000/svg" xmlns:xlink="http://www.w3.org/1999/xlink">
    <title>icon_shequ1</title>
    <g id="Saas设计规范3.0" stroke="none" stroke-width="1" fill="none" fill-rule="evenodd">
        <g id="6.3-首页快捷入口图标规范" transform="translate(-677.000000, -146.000000)">
            <g id="榴莲" transform="translate(260.000000, 146.000000)">
                <g id="icon_shequ1" transform="translate(417.000000, 0.000000)">
                    <path d="M0,0 L44,0 L44,44 L0,44 L0,0 Z" id="矩形"></path>
                    <g id="icon_shequ" transform="translate(1.000000, 1.000000)">
                        <path d="M7.43062384,38.4977419 L21.0000037,38.4977419 C28.0788541,38.4977419 34.4606116,34.233362 37.1692538,27.6932225 C39.8778961,21.1530829 38.3799537,13.6252696 33.3739662,8.62024831 C28.3679787,3.61522699 20.8398796,2.11874084 14.3002679,4.82865034 C7.76065618,7.53855983 3.49751398,13.921146 3.49888366,21 C3.49888366,23.3777419 4.65388337,26.9748387 7.04449501,31.6354839 L7.429269,32.3874194 L7.429269,38.4977419 L7.429269,38.4977419 L7.43062384,38.4977419 Z M21.0000074,42 L3.92904505,42 L3.92904505,33.2341935 C1.3060787,28.1196774 -0.00359802319,24.0416129 7.42371725e-06,21 C7.42371725e-06,9.40202025 9.40203014,0 21.0000074,0 C32.5979773,0 41.9999926,9.40202025 41.9999926,21 C41.9999926,32.5979797 32.5979773,42 21.0000074,42 Z" id="形状_3" fill="#898794"></path>
                        <path d="M27.5404841,20.3158065 C28.1297993,19.7262491 28.359824,18.8670796 28.1439101,18.0619387 C27.9279963,17.2567979 27.2989463,16.6280058 26.4937173,16.4124225 C25.6884884,16.1968391 24.8294138,16.4272167 24.2400988,17.0167742 L20.5278427,20.7290323 L16.8155866,17.0167742 C15.903369,16.1127207 14.432022,16.1159522 13.5237843,17.024004 C12.6155466,17.9320557 12.612013,19.4034027 13.5158787,20.3158065 L20.5278427,27.3270968 L27.5398067,20.3158065 L27.5398067,20.3158065 L27.5404841,20.3158065 Z M20.5291975,15.7770968 L21.7654872,14.5374194 C24.0558748,12.3315102 27.6908812,12.3658797 29.9391488,14.6147024 C32.1874164,16.8635251 32.2208904,20.4985417 30.0144183,22.7883871 L20.5305524,32.2790323 L11.0419445,22.7883871 C8.80261244,20.5033508 8.8211087,16.8411827 11.0834077,14.5788826 C13.3457067,12.3165824 17.0078728,12.2980861 19.2929079,14.5374194 L20.5298749,15.7770968 L20.5298749,15.7770968 L20.5291975,15.7770968 Z" id="形状_3_拷贝" fill="#024FFD"></path>
                    </g>
                </g>
            </g>
        </g>
    </g>
</svg>