<?xml version="1.0" encoding="UTF-8"?>
<svg width="44px" height="46px" viewBox="0 0 44 46" version="1.1" xmlns="http://www.w3.org/2000/svg" xmlns:xlink="http://www.w3.org/1999/xlink">
    <title>icon_chong1</title>
    <g id="中文模版(定)" stroke="none" stroke-width="1" fill="none" fill-rule="evenodd">
        <g id="01-首页" transform="translate(-452.000000, -882.000000)">
            <g id="快捷入口" transform="translate(30.000000, 746.000000)">
                <g id="我要充币" transform="translate(396.000000, 137.000000)">
                    <g id="icon_chong1" transform="translate(26.000000, 0.000000)">
                        <path d="M0,0 L44,0 L44,44 L0,44 L0,0 Z" id="矩形"></path>
                        <g id="icon_1" transform="translate(5.000000, 0.000000)" fill-rule="nonzero">
                            <path d="M28.2791133,15.3691069 C28.4172615,14.669668 28.4898297,13.9462782 28.4898297,13.2059607 C28.4898297,7.1060217 23.5695293,2.16098521 17.4999642,2.16098521 C11.4305783,2.16098521 6.5102778,7.1060217 6.5102778,13.2059607 C6.5102778,13.9462782 6.58266678,14.669668 6.72099424,15.3691069 L4.5354921,15.3691069 C4.42009977,14.6653461 4.36009217,13.9426766 4.36009217,13.2059607 C4.36009217,5.91254558 10.242969,0 17.4999642,0 C24.7569594,0 30.6399974,5.91254558 30.6399974,13.2059607 C30.6399974,13.9426766 30.5799719,14.6653461 30.4645796,15.3691069 L28.2791133,15.3691069 Z M22.0687122,15.3691069 C21.9020742,14.5418097 21.3605903,14.1706605 20.948654,13.8884719 C20.8775193,13.8396696 20.8099682,13.7935686 20.7492259,13.7480078 C21.5732777,13.463118 22.0726542,13.105655 22.3417835,11.9603328 C22.846177,9.81717574 21.0093962,8.73297344 19.7859508,8.39319453 L20.3530575,5.98176914 L19.0011396,5.60613589 L18.4360038,8.00718855 L17.4394011,7.73139281 L18.0045369,5.33035816 L16.6425848,4.95225778 L16.0844371,7.32462336 L13.4499441,6.63417058 L13.0790402,8.20981693 L14.2372638,8.5310834 C14.3067859,8.55037019 14.3721869,8.58433368 14.4295247,8.63106498 C14.4870417,8.67777828 14.5354204,8.73632297 14.5719733,8.80336754 C14.6085261,8.87039409 14.6325363,8.94460593 14.6427496,9.0217531 C14.6529629,9.09882824 14.649021,9.17752412 14.6311029,9.25297852 L13.191924,15.3691069 L15.6415025,15.3691069 L16.0541556,13.6154674 C17.8692555,14.1191571 19.0425303,14.5473923 19.3285026,15.3691069 L22.0687122,15.3691069 Z M19.802973,11.5353391 C19.5716508,12.5182272 18.8597661,12.9073846 16.3827729,12.2196511 L17.060434,9.3376171 C18.8173002,9.82617984 20.0864367,10.3262678 19.802973,11.535159 L19.802973,11.5353391 Z" id="形状" stroke="#024FFD" fill="#024FFD"></path>
                            <path d="M1.07508386,15.4270934 C0.481332961,15.4270934 0,15.9107939 0,16.507586 L0,42.9195074 C0,43.5162995 0.481332961,44 1.07508386,44 L33.9249161,44 C34.5185416,44 35,43.5162995 35,42.9195074 L35,36.3166171 C35,35.8017623 34.6384135,35.3584002 34.1361701,35.2571941 L34.1356326,35.257014 L34.1345575,35.2568339 L34.1218357,35.2541327 L34.063602,35.2415269 C34.0105645,35.2298216 33.9299332,35.2114532 33.8256501,35.1860616 C33.6169046,35.1350984 33.3148061,35.0562225 32.9505318,34.9463724 C32.2182205,34.7255917 31.2536911,34.3852365 30.299375,33.9056779 C28.2930894,32.8975783 26.7874344,31.5165287 26.7874344,29.7135467 C26.7874344,27.9105647 28.2930894,26.529515 30.299375,25.5214154 C31.2536911,25.0418568 32.2182205,24.7015016 32.9505318,24.480721 C33.3148061,24.3708709 33.6169046,24.2919949 33.8256501,24.2410317 C33.9299332,24.2156401 34.0105645,24.1972718 34.063602,24.1855664 L34.1218357,24.1729607 L34.1345575,24.1702594 L34.1356326,24.1700794 L34.1361701,24.1698993 L34.1363493,24.1698993 C34.6385926,24.0686931 35,23.625331 35,23.1104763 L35,16.507586 C35,15.9107939 34.5185416,15.4270934 33.9249161,15.4270934 L1.07508386,15.4270934 Z M32.332717,37.016236 C32.5203191,37.0727818 32.6937659,37.1221243 32.8498323,37.1646237 L32.8498323,41.8390148 L2.15016771,41.8390148 L2.15016771,17.5880786 L32.8498323,17.5880786 L32.8498323,22.2624697 C32.6937659,22.304969 32.5203191,22.3543115 32.332717,22.4108573 C31.5251498,22.6543283 30.4366274,23.0362825 29.3378917,23.5885943 C27.2378946,24.6436953 24.6372667,26.5642709 24.6372667,29.7135467 C24.6372667,32.8628225 27.2378946,34.7833981 29.3378917,35.8384991 C30.4366274,36.3906308 31.5251498,36.772765 32.332717,37.016236 Z M32.2823672,28.6330541 C31.6885625,28.6330541 31.2072833,29.1167546 31.2072833,29.7135467 C31.2072833,30.3103388 31.6885625,30.7940393 32.2823672,30.7940393 L33.9249161,30.7940393 C34.5185416,30.7940393 35,30.3103388 35,29.7135467 C35,29.1167546 34.5185416,28.6330541 33.9249161,28.6330541 L32.2823672,28.6330541 Z" id="形状" stroke="#878999" fill="#878999"></path>
                        </g>
                    </g>
                </g>
            </g>
        </g>
    </g>
</svg>