<?xml version="1.0" encoding="UTF-8"?>
<svg width="28px" height="28px" viewBox="0 0 28 28" version="1.1" xmlns="http://www.w3.org/2000/svg" xmlns:xlink="http://www.w3.org/1999/xlink">
    <title>icon_jing@2x</title>
    <g id="KYC认证" stroke="none" stroke-width="1" fill="none" fill-rule="evenodd">
        <g id="2-身份认证" transform="translate(-30.000000, -982.000000)" fill-rule="nonzero">
            <g id="编组" transform="translate(30.000000, 980.000000)">
                <g id="icon_jing" transform="translate(0.000000, 2.000000)">
                    <rect id="矩形_1263" x="0" y="0" width="28" height="28"></rect>
                    <path d="M14,18.5932603 C13.2308892,18.5932603 12.6071013,19.2168642 12.6071013,19.9859688 C12.6071013,20.7552524 13.2307103,21.3790353 14,21.3790353 C14.7694687,21.3790353 15.3928987,20.7554313 15.3928987,19.9859688 C15.3928987,19.2166853 14.7694388,18.5932603 14,18.5932603 L14,18.5932603 Z M14,1 C6.83167286,1 1,6.83147692 1,13.9998956 C1,21.1683442 6.83167286,27 14,27 C21.168685,27 27,21.168374 27,13.9998956 C27,6.83147695 21.1685061,1 14,1 Z M14,25.1344368 C7.86035479,25.1344368 2.86557824,20.1388057 2.86557824,13.9999255 C2.86557824,7.8601506 7.86035479,2.86559308 14,2.86559308 C20.1387804,2.86559308 25.1346007,7.86018041 25.1346007,13.9999255 C25.1346007,20.1388057 20.1387506,25.1344368 14,25.1344368 Z M13.9107426,16.3388802 C14.5277013,16.3388802 15.0278171,15.8387684 15.0278171,15.2218147 L15.0278171,6.60405576 C15.0278171,5.98707224 14.5277012,5.48699022 13.9107426,5.48699022 C13.2937541,5.48699022 12.7936681,5.98710205 12.7936681,6.60405576 L12.7936681,15.2218147 C12.7936383,15.8387684 13.2937541,16.3388802 13.9107426,16.3388802 Z" id="形状" fill="#D0A858"></path>
                </g>
            </g>
        </g>
    </g>
</svg>