<?xml version="1.0" encoding="UTF-8"?>
<svg width="60px" height="60px" viewBox="0 0 60 60" version="1.1" xmlns="http://www.w3.org/2000/svg" xmlns:xlink="http://www.w3.org/1999/xlink">
    <title>icon_xiang</title>
    <defs>
        <linearGradient x1="50%" y1="0%" x2="50%" y2="100%" id="linearGradient-1">
            <stop stop-color="#EAD391" offset="0%"></stop>
            <stop stop-color="#D0A858" offset="100%"></stop>
        </linearGradient>
    </defs>
    <g id="KYC认证" stroke="none" stroke-width="1" fill="none" fill-rule="evenodd">
        <g id="3-上传身份证" transform="translate(-520.000000, -454.000000)">
            <g id="正面" transform="translate(30.000000, 374.000000)">
                <g id="icon_xiang" transform="translate(490.000000, 80.000000)">
                    <rect id="矩形" fill="#000000" fill-rule="nonzero" opacity="0" x="0" y="0" width="60" height="60"></rect>
                    <path d="M0,30 C0,46.5685425 13.4314575,60 30,60 C46.5685425,60 60,46.5685425 60,30 C60,13.4314575 46.5685425,0 30,0 C13.4314575,0 0,13.4314575 0,30 Z" id="路径" fill="url(#linearGradient-1)" opacity="0.8"></path>
                    <path d="M40.5,39.75 L19.5,39.75 C17.85,39.75 16.5,38.4 16.5,36.75 L16.5,21.75 C16.5,20.1 17.85,18.75 19.5,18.75 L24.75,18.75 L25.5,17.25 C25.5,16.425 26.175,15.75 27,15.75 L32.25,15.75 C33.075,15.75 33.75,16.425 33.75,17.25 L34.5,18.75 L40.5,18.75 C42.15,18.75 43.5,20.1 43.5,21.75 L43.5,36.75 C43.5,38.4 42.15,39.75 40.5,39.75 L40.5,39.75 Z M30,24 C27.075,24 24.75,26.325 24.75,29.25 C24.75,32.175 27.075,34.5 30,34.5 C32.925,34.5 35.25,32.175 35.25,29.25 C35.25,26.325 32.925,24 30,24 Z M30,33 C27.9,33 26.25,31.35 26.25,29.25 C26.25,27.15 27.9,25.5 30,25.5 C32.1,25.5 33.75,27.15 33.75,29.25 C33.75,31.35 32.1,33 30,33 Z" id="形状" fill="#FFFFFF" fill-rule="nonzero"></path>
                </g>
            </g>
        </g>
    </g>
</svg>