<?xml version="1.0" encoding="UTF-8"?>
<svg width="66px" height="40px" viewBox="0 0 66 40" version="1.1" xmlns="http://www.w3.org/2000/svg" xmlns:xlink="http://www.w3.org/1999/xlink">
    <title>night_icon</title>
    <g id="页面-1" stroke="none" stroke-width="1" fill="none" fill-rule="evenodd">
        <g id="0-图标下载" transform="translate(-642.000000, -240.000000)" fill-rule="nonzero">
            <g id="night_icon" transform="translate(642.000000, 240.000000)">
                <rect id="矩形" fill="#5C5E6E" x="0" y="0" width="66" height="40" rx="20"></rect>
                <g id="月亮" transform="translate(28.000000, 2.000000)">
                    <circle id="椭圆形" fill="#FFFFFF" cx="18" cy="18" r="18"></circle>
                    <path d="M17.9808358,27 C13.2688315,27 9.40484429,23.3856287 9,18.7820359 C9.02395528,18.3365269 9.38568006,17.9820359 9.83603939,17.9820359 C10.0947565,17.9820359 10.3271227,18.097006 10.4804365,18.2790419 C10.4852276,18.2862275 10.4924142,18.2814371 10.4924142,18.2622754 C11.488954,19.3209581 12.8999201,19.9844311 14.4713867,19.9844311 C17.5161033,19.9844311 19.9834975,17.5173653 19.9834975,14.4730539 C19.9834975,12.8898204 19.3127495,11.4766467 18.2443439,10.4778443 C18.2467394,10.4754491 18.2563215,10.4754491 18.2515305,10.4706587 C18.0838435,10.3149701 17.9784402,10.0946108 17.9784402,9.84550898 C17.9784402,9.39041916 18.335374,9.02874251 18.7857333,9 C23.3875433,9.40958084 27,13.2706587 27,17.9820359 C27,22.9640719 22.9635347,27 17.9808358,27 Z" id="路径备份" fill="#F0B90B"></path>
                </g>
            </g>
        </g>
    </g>
</svg>