<?xml version="1.0" encoding="UTF-8"?>
<svg width="30px" height="31px" viewBox="0 0 30 31" version="1.1" xmlns="http://www.w3.org/2000/svg" xmlns:xlink="http://www.w3.org/1999/xlink">
    <title>icon_add</title>
    <g id="Saas设计规范3.0" stroke="none" stroke-width="1" fill="none" fill-rule="evenodd">
        <g id="6.5-闪兑图标规范" transform="translate(-229.000000, -512.000000)" fill-rule="nonzero">
            <g id="icon_add" transform="translate(229.000000, 512.333333)">
                <rect id="矩形" fill="#000000" opacity="0" x="0" y="0" width="30" height="30"></rect>
                <path d="M2.04,5.67333333 L2.04,24.3866667 C2.04,26.2276158 3.53238417,27.72 5.37333333,27.72 L24.1466667,27.72 C25.9876158,27.72 27.48,26.2276158 27.48,24.3866667 L27.48,5.67333333 C27.48,3.83238417 25.9876158,2.34 24.1466667,2.34 L5.37333333,2.34 C3.53238417,2.34 2.04,3.83238417 2.04,5.67333333 Z M21.12,16.44 L16.2,16.44 L16.2,21.36 C16.2,22.2 15.54,22.86 14.76,22.86 C13.92,22.86 13.26,22.2 13.26,21.36 L13.26,16.44 L8.4,16.44 C7.56,16.44 6.9,15.78 6.9,14.94 C6.9,14.1 7.56,13.5 8.4,13.5 L13.26,13.5 L13.26,8.58 C13.26,7.74 13.92,7.08 14.76,7.08 C15.54,7.08 16.2,7.74 16.2,8.58 L16.2,13.5 L21.12,13.5 C21.96,13.5 22.62,14.1 22.62,14.94 C22.56,15.84 21.9,16.44 21.12,16.44 Z" id="kSASSVGImageLayerID1" fill="#024FFD"></path>
            </g>
        </g>
    </g>
</svg>