<?xml version="1.0" encoding="UTF-8"?>
<svg width="40px" height="40px" viewBox="0 0 40 40" version="1.1" xmlns="http://www.w3.org/2000/svg" xmlns:xlink="http://www.w3.org/1999/xlink">
    <title>icon_liao6</title>
    <g id="Saas设计规范3.0" stroke="none" stroke-width="1" fill="none" fill-rule="evenodd">
        <g id="6.5-闪兑图标规范" transform="translate(-450.000000, -322.000000)" fill-rule="nonzero">
            <g id="用户账单" transform="translate(50.000000, 311.000000)">
                <g id="icon_liao6" transform="translate(400.000000, 11.000000)">
                    <rect id="矩形" fill="#000000" opacity="0" x="0" y="0" width="40" height="40"></rect>
                    <path d="M27.635,15.3075 C26.3725,9.6475 20.7225,5.375 13.95,5.375 C6.2475,5.375 0,10.8975 0,17.71 C0,20.995 1.4525,23.9775 3.82,26.185 C4.55,26.875 4.5825,28.0275 3.89,28.755 L2.77,29.9325 C2.77,29.9325 13.37,30.0475 13.9525,30.0475 C16.6525,30.0475 19.1725,29.3675 21.3075,28.1925 C25.2675,26.0175 27.9025,22.135 27.9025,17.7075 C27.9,16.8875 27.81,16.085 27.635,15.3075 Z M7.265,19.9 C6.0525,19.9 5.075,18.9225 5.075,17.71 C5.075,16.5 6.0525,15.52 7.265,15.52 C8.475,15.52 9.455,16.5 9.455,17.71 C9.455,18.9225 8.475,19.9 7.265,19.9 Z M13.95,19.9 C12.74,19.9 11.76,18.9225 11.76,17.71 C11.76,16.5 12.74,15.52 13.95,15.52 C15.16,15.52 16.14,16.5 16.14,17.71 C16.14,18.9225 15.16,19.9 13.95,19.9 Z M20.715,19.8975 C20.6875,19.9 20.6625,19.9 20.635,19.9 C19.425,19.9 18.445,18.9225 18.445,17.71 C18.445,16.5 19.425,15.52 20.635,15.52 C21.7475,15.52 22.665,16.3475 22.805,17.42 C22.8175,17.5175 22.8250126,17.6125 22.8250126,17.7125 C22.8289703,18.8918693 21.8937889,19.8602917 20.715,19.8975 Z" id="kSASSVGImageLayerID1" fill="#024FFD"></path>
                    <path d="M37.3475,31.61 L38.1125,32.4125 L31.89,32.4125 C31.815,32.4125 31.74,32.4175 31.665,32.425 C31.28,32.4675 30.89,32.4925 30.4925,32.4925 C27.165,32.4925 24.235,30.98 22.54,28.69 C26.5,26.515 29.135,22.6325 29.135,18.205 C29.135,17.3825 29.0425,16.58 28.8675,15.8025 C29.395,15.72 29.94,15.68 30.4925,15.68 C35.7425,15.68 39.9975,19.4425 39.9975,24.085 C39.9975,26.3225 39.0075,28.355 37.395,29.86 C36.9,30.3275 36.88,31.1125 37.3475,31.61 L37.3475,31.61 Z" id="kSASSVGImageLayerID2" fill="#024FFD"></path>
                </g>
            </g>
        </g>
    </g>
</svg>