<?xml version="1.0" encoding="UTF-8"?>
<svg width="60px" height="60px" viewBox="0 0 60 60" version="1.1" xmlns="http://www.w3.org/2000/svg" xmlns:xlink="http://www.w3.org/1999/xlink">
    <title>icon_shou</title>
    <g id="KYC认证" stroke="none" stroke-width="1" fill="none" fill-rule="evenodd">
        <g id="4-信息核对" transform="translate(-646.000000, -206.000000)">
            <g id="流程说明" transform="translate(30.000000, 206.000000)">
                <g id="icon_shou" transform="translate(616.000000, 0.000000)">
                    <circle id="椭圆形" fill="#D0A858" cx="30" cy="30" r="30"></circle>
                    <path d="M22.579043,20.6556152 L37.5789551,20.6556152 L37.5789551,22.5305859 L22.579043,22.5305859 L22.579043,20.6556152 Z M22.5290332,24.4238672 L37.528916,24.4238672 L37.528916,26.2988379 L22.5290332,26.2988379 L22.5290332,24.4238672 Z M22.5290332,28.1736328 L32.1748828,28.1736328 L32.1748828,30.0486328 L22.5290332,30.0486328 L22.5290332,28.1736328 Z M22.5290332,31.9236914 L26.5749316,31.9236914 L26.5749316,33.7986914 L22.5290332,33.7986914 L22.5290332,31.9236914 Z M41.3289551,15 L18.8291309,15 C17.7936328,15 16.9541602,15.8394727 16.9541602,16.875 L16.9541602,43.1247656 C16.9541602,44.1602637 17.7936328,44.9997363 18.8291309,44.9997363 L27.6006152,44.990127 L27.6006152,43.1151562 L18.8291309,43.1247656 L18.8291309,16.875 L41.3289844,16.875 L41.3289844,28.8749707 L43.2039551,28.8749707 L43.2039551,16.875 C43.2039551,15.8394727 42.3643066,15 41.3289551,15 L41.3289551,15 Z M37.2536426,31.3376074 C33.4811133,31.3376074 30.4226367,34.396377 30.4226367,38.1689355 C30.4226367,41.9411719 33.4811133,44.9999414 37.2536426,44.9999414 C41.0261719,44.9999414 44.0846484,41.9411719 44.0846484,38.1689355 C44.0846484,34.396377 41.0261426,31.3376074 37.2536426,31.3376074 Z M37.2536426,43.2920215 C34.4289551,43.2920215 32.1302344,40.993916 32.1302344,38.1689355 C32.1302344,35.344248 34.4289551,33.0455273 37.2536426,33.0455273 C40.0789746,33.0455273 42.3770801,35.3442773 42.3770801,38.1689355 C42.3770801,40.993916 40.0789453,43.2920215 37.2536426,43.2920215 Z M38.1075879,37.815293 L38.1075879,34.7530957 C38.1075879,34.2811816 37.7255859,33.8994434 37.2536426,33.8994434 C36.7817285,33.8994434 36.3996973,34.2811816 36.3996973,34.7530957 L36.3996973,38.1716895 C36.4003125,38.406709 36.4957617,38.6195215 36.6508008,38.7733008 L38.3574316,40.4806055 C38.5242188,40.6473633 38.7428906,40.7304492 38.9615625,40.7304492 C39.1799121,40.7304492 39.398584,40.6473633 39.5653418,40.4806055 C39.8985938,40.1470605 39.8985938,39.6062402 39.5653418,39.2727246 L38.1075879,37.815293 Z" id="形状" fill="#FFFFFF" fill-rule="nonzero"></path>
                </g>
            </g>
        </g>
    </g>
</svg>