<?xml version="1.0" encoding="UTF-8"?>
<svg width="60px" height="60px" viewBox="0 0 60 60" version="1.1" xmlns="http://www.w3.org/2000/svg" xmlns:xlink="http://www.w3.org/1999/xlink">
    <title>icon_message</title>
    <g id="KYC认证" stroke="none" stroke-width="1" fill="none" fill-rule="evenodd">
        <g id="4-信息核对" transform="translate(-44.000000, -206.000000)">
            <g id="流程说明" transform="translate(30.000000, 206.000000)">
                <g id="icon_message" transform="translate(14.000000, 0.000000)">
                    <circle id="椭圆形" fill="#D0A858" cx="30" cy="30" r="30"></circle>
                    <path d="M22.8515625,24.6533203 C22.3661426,24.6533203 21.9726562,24.259834 21.9726562,23.7744141 C21.9726562,23.2889941 22.3661426,22.8955078 22.8515625,22.8955078 L37.1484375,22.8955078 C37.6338574,22.8955078 38.0273438,23.2889941 38.0273438,23.7744141 C38.0273438,24.259834 37.6338574,24.6533203 37.1484375,24.6533203 L22.8515625,24.6533203 Z M22.8515625,30.8789062 C22.3661426,30.8789062 21.9726562,30.4854199 21.9726562,30 C21.9726562,29.5145801 22.3661426,29.1210938 22.8515625,29.1210938 L33.6914062,29.1210938 C34.1768262,29.1210938 34.5703125,29.5145801 34.5703125,30 C34.5703125,30.4854199 34.1768262,30.8789062 33.6914062,30.8789062 L22.8515625,30.8789062 Z M22.8515625,37.1044922 C22.3661426,37.1044922 21.9726562,36.7110059 21.9726562,36.2255859 C21.9726562,35.740166 22.3661426,35.3466797 22.8515625,35.3466797 L29.8828125,35.3466797 C30.3682324,35.3466797 30.7617188,35.740166 30.7617188,36.2255859 C30.7617188,36.7110059 30.3682324,37.1044922 29.8828125,37.1044922 L22.8515625,37.1044922 Z" id="形状" fill="#FFFFFF" fill-rule="nonzero"></path>
                    <path d="M38.856416,34.3291992 L36.9535254,33.2305664 L33.5909766,39.054668 C33.484299,39.2394294 33.448468,39.4566857 33.490166,39.665918 L33.7507324,40.973291 L35.0146582,40.545791 C35.2169622,40.4773706 35.3874334,40.3376319 35.4942188,40.1526855 L38.856416,34.3291992 Z M39.7353223,32.806875 L40.1894238,32.0203711 C40.4321191,31.5999609 40.2880957,31.0624512 39.8677148,30.8197559 L39.4871484,30.6000293 C39.0667383,30.3573047 38.5292285,30.5013574 38.2865332,30.921709 L37.8324316,31.7082422 L39.7353223,32.806875 Z M40.3660547,29.0777051 L40.7466211,29.2974316 C42.0077344,30.0255469 42.439834,31.6381348 41.7117188,32.8992773 L37.0165137,41.0315918 C36.6961703,41.5864363 36.1847671,42.0056628 35.5778613,42.2109375 L33.3659473,42.9590625 C32.8635059,43.1290137 32.3261133,42.8184961 32.2224316,42.2982715 L31.7662793,40.0095117 C31.6411675,39.381822 31.7486397,38.7300534 32.0686523,38.1757617 L36.764209,30.042832 C37.4923242,28.7816895 39.1049121,28.3495898 40.3660547,29.0777051 L40.3660547,29.0777051 Z" id="形状" fill="#FFFFFF" fill-rule="nonzero"></path>
                    <path d="M29.5605469,41.3671875 C30.0459668,41.3671875 30.4394531,41.7606738 30.4394531,42.2460938 C30.4394531,42.7315137 30.0459668,43.125 29.5605469,43.125 L20.5078125,43.125 C19.051582,43.125 17.8710938,41.9445117 17.8710938,40.4882812 L17.8710938,19.5117188 C17.8710938,18.0554883 19.051582,16.875 20.5078125,16.875 L39.4921875,16.875 C40.948418,16.875 42.1289062,18.0554883 42.1289062,19.5117188 L42.1289062,26.5053223 C42.1289062,26.9907129 41.7354199,27.3842285 41.25,27.3842285 C40.7645801,27.3842285 40.3710938,26.9907129 40.3710938,26.5053223 L40.3710938,19.5117188 C40.3710938,19.0262988 39.9776074,18.6328125 39.4921875,18.6328125 L20.5078125,18.6328125 C20.0223926,18.6328125 19.6289062,19.0262988 19.6289062,19.5117188 L19.6289062,40.4882812 C19.6289062,40.9737012 20.0223926,41.3671875 20.5078125,41.3671875 L29.5605469,41.3671875 Z" id="路径" fill="#FFFFFF" fill-rule="nonzero"></path>
                </g>
            </g>
        </g>
    </g>
</svg>