<?xml version="1.0" encoding="UTF-8"?>
<svg width="44px" height="44px" viewBox="0 0 44 44" version="1.1" xmlns="http://www.w3.org/2000/svg" xmlns:xlink="http://www.w3.org/1999/xlink">
    <title>icon_tibi2</title>
    <g id="Joybit蓝色" stroke="none" stroke-width="1" fill="none" fill-rule="evenodd">
        <g id="0-图标下载" transform="translate(-203.000000, -238.000000)">
            <g id="提币记录" transform="translate(165.000000, 238.000000)">
                <g id="icon_tibi2" transform="translate(38.000000, 0.000000)">
                    <path d="M0,0 L44,0 L44,44 L0,44 L0,0 Z" id="矩形"></path>
                    <g id="icon_tibi" transform="translate(1.000000, 2.000000)">
                        <path d="M13.5817996,12.0006978 C14.7687479,14.9321585 17.6428888,17 21,17 C24.3571112,17 27.2312521,14.9321585 28.4182004,12.0006978 L36,12 C39.3137085,12 42,14.6862915 42,18 L42,34 C42,37.3137085 39.3137085,40 36,40 L6,40 C2.6862915,40 4.05812251e-16,37.3137085 0,34 L0,18 C-4.05812251e-16,14.6862915 2.6862915,12 6,12 L13.5817996,12.0006978 Z M12.3380804,15.0004468 L7,15 C4.790861,15 3,16.790861 3,19 L3,19 L3,33 C3,35.209139 4.790861,37 7,37 L7,37 L35,37 C37.209139,37 39,35.209139 39,33 L39,33 L39,19 C39,16.790861 37.209139,15 35,15 L35,15 L29.6619196,15.0004468 C27.9328089,17.9892073 24.7012273,20 21,20 C17.2987727,20 14.0671911,17.9892073 12.3380804,15.0004468 L12.3380804,15.0004468 Z" id="形状结合" fill="#878999"></path>
                        <path d="M24.0822645,9.77234693 C24.3541303,9.3767823 24.5162547,8.88164764 24.5162547,8.34366768 C24.5162547,7.04925712 23.5797956,5.99984922 22.4250245,5.99984922 C22.3325492,5.99984922 22.2201741,5.99984922 22.0917036,5.99984922 L22.0917036,4.18737272 C22.0917036,4.08418195 22.0097634,4 21.909972,4 L21.3033221,4 C21.2032381,4 21.1215905,4.0844837 21.1215905,4.18737274 L21.1215905,5.99984924 L20.1517701,5.99984924 L20.1517701,4.18737274 C20.1517701,4.08418197 20.0698299,4 19.9700385,4 L19.3639739,4 C19.2638898,4 19.1822423,4.0844837 19.1822423,4.18737274 L19.1822423,5.99984924 L17.1817316,5.99984924 C17.0813549,5.99984924 17,6.08372945 17,6.18722196 L17,6.81843568 C17,6.91498845 17.0699418,6.99856693 17.1632951,7.00731704 C17.8463249,7.07188669 18.2124219,7.5443918 18.2124219,8.12491534 L18.2124219,12 C18.2124219,12.5222905 17.9510912,12.9368639 17.3798512,12.9935887 C17.298789,13.0017353 17.231481,13.0611756 17.2162635,13.1438489 L17.1003767,13.7810972 C17.079599,13.8948484 17.1644656,14.0001513 17.2768407,14.0001513 L19.181657,14.0001513 L19.181657,15.8126278 C19.181657,15.9158186 19.2635972,16 19.3633886,16 L19.9694532,16 C20.0695373,16 20.1511848,15.9155168 20.1511848,15.8126278 L20.1511848,14.0001513 L21.1210053,14.0001513 L21.1210053,15.8126278 C21.1210053,15.9158186 21.2029455,16 21.3027369,16 L21.9088015,16 C22.0088855,16 22.0905331,15.9155168 22.0905331,15.8126278 L22.0905331,14.0001513 C22.4340965,14.0001513 22.7194239,14.0001513 22.9087642,14.0001513 C24.063828,14.0001513 25,12.9649246 25,11.6877125 C25.0011649,10.8905487 24.6368238,10.1881273 24.0822645,9.77234693 Z M20.1514775,7.49973615 C20.1514775,7.49973615 21.0841322,7.49973615 21.636643,7.49973615 C22.1891539,7.49973615 22.6368984,7.96137907 22.6368984,8.5310404 C22.6368984,9.10070172 22.1891539,9.56234464 21.636643,9.56234464 C21.0841322,9.56234464 20.1514775,9.56234464 20.1514775,9.56234464 L20.1514775,7.49973615 Z M22.1215533,12.5624202 C21.5690424,12.5624202 20.1514775,12.5624202 20.1514775,12.5624202 L20.1514775,10.4998117 C20.1514775,10.4998117 21.5690424,10.4998117 22.1215533,10.4998117 C22.6740641,10.4998117 23.1218086,10.9614546 23.1218086,11.531116 C23.1218086,12.1007773 22.6740641,12.5624202 22.1215533,12.5624202 Z" id="形状" fill="#024FFD" fill-rule="nonzero"></path>
                        <rect id="矩形" fill="#024FFD" x="10" y="29" width="22" height="3" rx="1.5"></rect>
                        <path d="M32.962963,1.04383662e-15 C35.7333333,8.74200364e-16 38,2.40474308 38,5.34387352 L38,5.34387352 L37.999,12.999 L35.481,12.999 L35.4814815,5.34387352 C35.4814815,3.93083004 34.4336511,2.76482213 33.1216242,2.67721952 L32.962963,2.67193676 L9.03703704,2.67193676 C7.65185185,2.67193676 6.51851852,3.8743083 6.51851852,5.34387352 L6.51851852,5.34387352 L6.518,12.999 L4,12.999 L4,5.34387352 C4,2.4801054 6.1519176,0.123671498 8.82495484,0.00471155254 L9.03703704,2.50887705e-15 Z" id="形状结合" fill="#878999" fill-rule="nonzero"></path>
                    </g>
                </g>
            </g>
        </g>
    </g>
</svg>