<?xml version="1.0" encoding="UTF-8"?>
<svg width="20px" height="20px" viewBox="0 0 20 20" version="1.1" xmlns="http://www.w3.org/2000/svg" xmlns:xlink="http://www.w3.org/1999/xlink">
    <title>icon_down02@2x</title>
    <g id="网格交易" stroke="none" stroke-width="1" fill="none" fill-rule="evenodd">
        <g id="2.2-创建网格/弹出" transform="translate(-356.000000, -324.000000)">
            <g id="left" transform="translate(30.000000, 304.000000)">
                <g id="dench" transform="translate(188.000000, 0.000000)">
                    <g id="icon_down02" transform="translate(148.000000, 30.000000) scale(1, -1) translate(-148.000000, -30.000000) translate(138.000000, 20.000000)">
                        <rect id="矩形_1263" fill-rule="nonzero" x="0" y="0" width="20" height="20"></rect>
                        <path d="M2.04297747,5.689 C1.94058932,6.08568373 2.02331391,6.50739529 2.26797747,6.836 L9.31597747,15.09 C9.41755209,15.2319851 9.58140037,15.3162287 9.75597747,15.3162287 C9.93055457,15.3162287 10.0944029,15.2319851 10.1959775,15.09 L17.2439775,6.837 C17.4231279,6.60720507 17.5168094,6.32227177 17.5089775,6.031 C17.5091208,5.91615466 17.4956944,5.80169458 17.4689775,5.69 C17.4303688,5.33537014 17.1569418,5.0516639 16.8039775,5 L2.70897747,5 C2.35595001,5.05114847 2.08211524,5.33444 2.04297747,5.689 L2.04297747,5.689 Z" id="Left_arrow_拷贝" fill="#04C275"></path>
                    </g>
                </g>
            </g>
        </g>
    </g>
</svg>