<svg width="12" height="12" viewBox="0 0 12 12" fill="none" xmlns="http://www.w3.org/2000/svg">
<g clip-path="url(#clip0_2348_9237)">
<path d="M10.417 7.27926H1.1072C1.04834 7.27926 1.00017 7.32742 1.00017 7.38629V8.18896C1.00017 8.24783 1.04834 8.29599 1.1072 8.29599H9.20352L7.27303 10.7443C7.24783 10.7766 7.24321 10.8205 7.26112 10.8574C7.27903 10.8943 7.31635 10.9178 7.35737 10.9181H8.32721C8.39271 10.9181 8.45436 10.8885 8.49588 10.8365L10.7541 7.97213C10.9748 7.6913 10.7755 7.27926 10.417 7.27926ZM10.7393 4.12207H2.64298L4.57347 1.67381C4.59867 1.64144 4.60329 1.59757 4.58538 1.56066C4.56748 1.52376 4.53016 1.50024 4.48914 1.5H3.51929C3.45379 1.5 3.39215 1.52932 3.35062 1.58155L1.09243 4.44571C0.871747 4.72676 1.07102 5.1388 1.42827 5.1388H10.7393C10.7982 5.1388 10.8463 5.09064 10.8463 5.03177V4.2291C10.8463 4.17023 10.7982 4.12207 10.7393 4.12207Z" fill="#024FFD" stroke="#024FFD"/>
</g>
<defs>
<clipPath id="clip0_2348_9237">
<rect width="12" height="12" fill="white"/>
</clipPath>
</defs>
</svg>
