<svg width="50" height="56" viewBox="0 0 50 56" fill="none" xmlns="http://www.w3.org/2000/svg">
<g id="&#230;&#154;&#130;&#230;&#151;&#160;&#230;&#149;&#176;&#230;&#141;&#174; 1">
<path id="Vector" d="M41.8597 50.7513C41.8597 53.0079 33.5568 54.8346 23.2038 54.8346C12.8508 54.8346 4.65039 53.0079 4.65039 50.7514C4.65039 48.4947 12.9533 46.668 23.3063 46.668C33.5568 46.668 41.8597 48.4947 41.8597 50.7513Z" fill="#F7F8FA"/>
<path id="Vector_2" d="M43.8262 1.01811C44.4128 0.933415 44.748 1.01811 44.748 1.01811C48.1836 1.01811 48.6026 4.57453 48.6026 4.57453V11.9414H40.4744V4.74387C40.642 1.86483 42.6531 1.18746 43.8262 1.01811ZM34.6086 42.0019H6.03397C0.000620842 40.0544 1.00621 33.1955 1.00621 33.1955H28.5752C28.4914 38.8689 29.916 42.0019 34.6086 42.0019Z" fill="#F7F8FA"/>
<path id="Vector_3" d="M34.6078 42.9298H5.86558L5.698 42.8451C0.418799 41.1516 -0.251578 35.7322 0.0836364 33.0226L0.167402 32.1758H29.4962V33.1073C29.4962 36.4944 29.999 38.6113 31.0883 39.7968C31.8425 40.5589 33.0156 40.9823 34.6078 40.9823H35.362C39.7194 40.7283 39.6356 35.7323 39.6356 35.4783V4.74028C39.8032 1.01452 42.5685 0.252397 43.7416 0.0830542C44.2444 -0.00164306 44.6634 -0.00164306 44.8309 0.0830542C48.1828 0.0830542 49.356 2.96204 49.5236 4.48624V12.8693H41.3953V35.5628C41.4791 37.9339 40.306 42.6758 35.362 42.9298L34.6078 42.9298ZM6.2008 41.0669H29.6639C28.3231 39.6274 27.7365 37.4257 27.6527 34.1234H1.84332C1.84332 35.8169 2.2624 39.712 6.2008 41.0669ZM41.4792 11.0064H47.6801V4.57093C47.5963 4.14755 47.2611 1.94593 44.831 1.94593H43.9093C42.3172 2.11528 41.4791 3.13144 41.3954 4.74028L41.4792 11.0064Z" fill="#333333"/>
<path id="Vector_4" d="M9.46833 33.0254H7.54102V7.36816C7.7086 5.0819 9.3008 0.593967 14.161 0.0859375H44.7466V1.94882H14.3286C9.97113 2.4569 9.46833 6.94478 9.46833 7.45286V33.0254Z" fill="#333333"/>
<rect id="Rectangle 4558" x="14" y="13" width="21" height="4" rx="0.2" fill="#F0B90B"/>
<rect id="Rectangle 4559" x="13.9531" y="19.832" width="20.9302" height="1.98333" rx="0.2" fill="#F0B90B"/>
<rect id="Rectangle 4560" x="13.9531" y="24.5" width="12.7907" height="1.98333" rx="0.2" fill="#333333"/>
<g id="Group 7217">
<rect id="Rectangle 4566" x="35.2422" y="5.83203" width="5.89249" height="1.1785" rx="0.589249" transform="rotate(135 35.2422 5.83203)" fill="#F0B90B"/>
<rect id="Rectangle 4567" x="31.0762" y="5" width="5.89249" height="1.1785" rx="0.589249" transform="rotate(45 31.0762 5)" fill="#F0B90B"/>
</g>
</g>
</svg>
