<svg width="16" height="16" viewBox="0 0 16 16" fill="none" xmlns="http://www.w3.org/2000/svg">
<g id="&#229;&#128;&#146;&#232;&#174;&#161;&#230;&#151;&#182;">
<path id="Vector 1542 (Stroke)" fill-rule="evenodd" clip-rule="evenodd" d="M4.59998 2C4.59998 1.59499 4.9283 1.26666 5.33331 1.26666L10.6666 1.26666C11.0717 1.26666 11.4 1.59499 11.4 2C11.4 2.40501 11.0717 2.73333 10.6666 2.73333L5.33331 2.73333C4.9283 2.73333 4.59998 2.405 4.59998 2Z" fill="#333333"/>
<path id="Ellipse 732" d="M10.2481 4.40016C10.4201 4.04113 10.8582 3.88378 11.1993 4.09545C12.1349 4.67602 12.8936 5.50278 13.3854 6.48841C13.9849 7.69008 14.1521 9.05662 13.8594 10.3641C13.5668 11.6715 12.8317 12.8423 11.7747 13.6846C10.7176 14.5268 9.40134 14.9906 8.04153 14.9999C6.68171 15.0091 5.35903 14.5633 4.29026 13.7356C3.22149 12.9078 2.47003 11.7471 2.15903 10.4438C1.84803 9.14046 1.99594 7.77177 2.57852 6.56205C3.05636 5.56981 3.80338 4.7328 4.7307 4.13953C5.06879 3.92323 5.50907 4.07459 5.6861 4.43125C5.86314 4.7879 5.70848 5.21392 5.37925 5.44307C4.74558 5.88413 4.2338 6.48033 3.89785 7.17791C3.45704 8.09325 3.34512 9.12886 3.58044 10.115C3.81576 11.1012 4.38435 11.9794 5.19304 12.6057C6.00172 13.2321 7.00252 13.5694 8.03142 13.5624C9.06032 13.5554 10.0563 13.2044 10.8561 12.5671C11.6559 11.9299 12.2121 11.044 12.4335 10.0547C12.6549 9.06542 12.5285 8.03143 12.0748 7.12219C11.7291 6.42925 11.209 5.84009 10.5692 5.40771C10.2368 5.18306 10.0761 4.75919 10.2481 4.40016Z" fill="#333333"/>
<path id="Vector 1544 (Stroke)" fill-rule="evenodd" clip-rule="evenodd" d="M8 1.26666C8.40501 1.26666 8.73334 1.59499 8.73334 2L8.73334 4.26666C8.73334 4.67167 8.40501 5 8 5C7.59499 5 7.26667 4.67167 7.26667 4.26666L7.26667 2C7.26667 1.59499 7.595 1.26666 8 1.26666Z" fill="#333333"/>
<path id="Vector 1545 (Stroke)" fill-rule="evenodd" clip-rule="evenodd" d="M8 5.93332C8.40501 5.93332 8.73334 6.26164 8.73334 6.66665L8.73334 9.33332C8.73334 9.73833 8.40501 10.0667 8 10.0667C7.595 10.0667 7.26667 9.73833 7.26667 9.33332L7.26667 6.66665C7.26667 6.26164 7.595 5.93332 8 5.93332Z" fill="#333333"/>
<path id="Vector 1546 (Stroke)" fill-rule="evenodd" clip-rule="evenodd" d="M11.4 9.33335C11.4 9.73836 11.0717 10.0667 10.6667 10.0667H8.00002C7.59502 10.0667 7.26669 9.73836 7.26669 9.33335C7.26669 8.92834 7.59502 8.60001 8.00002 8.60001H10.6667C11.0717 8.60001 11.4 8.92834 11.4 9.33335Z" fill="#333333"/>
</g>
</svg>
