<svg width="12" height="12" viewBox="0 0 12 12" fill="none" xmlns="http://www.w3.org/2000/svg">
<g clip-path="url(#clip0_2348_9251)">
<path fill-rule="evenodd" clip-rule="evenodd" d="M1.37378 10.5238C1.27333 10.5225 1.17752 10.4812 1.10743 10.4091C1.03734 10.3369 0.998723 10.2398 1.00003 10.1392C1.0003 10.1142 1.00305 10.0893 1.00827 10.0649L1.6194 7.35385C1.63378 7.29582 1.66193 7.24213 1.70145 7.19734C1.71848 7.14552 1.74719 7.09832 1.78535 7.0594L7.71057 1.10943C7.85781 0.963522 8.09478 0.963522 8.24203 1.10943L10.3914 3.26872C10.5362 3.41581 10.5362 3.65217 10.3914 3.79925L4.46515 9.74657C4.36964 9.80345 4.27002 9.85311 4.16713 9.89512L1.45715 10.5132C1.43031 10.5185 1.403 10.5212 1.37564 10.5212L1.37378 10.5238ZM1.87243 9.64842L3.4721 9.28501L2.23423 8.03824L1.87243 9.64842ZM4.20154 8.95342L9.59556 3.53929L7.9763 1.90789L2.58334 7.32202L4.20154 8.95342ZM4.32567 7.895C4.21746 7.89442 4.12016 7.82883 4.07883 7.7286C4.0375 7.62836 4.0602 7.51306 4.13643 7.43608L8.00223 3.55521C8.10114 3.4452 8.27012 3.4359 8.38046 3.53438C8.4908 3.63285 8.50108 3.80215 8.40348 3.91332C8.39685 3.92127 8.3893 3.9284 8.38098 3.93454L4.51677 7.81807C4.46565 7.86858 4.39638 7.89631 4.32461 7.895H4.32567Z" fill="#D0A858"/>
<path d="M4.08789 10.7617H10.2629" stroke="#D0A858" stroke-linecap="square"/>
</g>
<defs>
<clipPath id="clip0_2348_9251">
<rect width="12" height="12" fill="white"/>
</clipPath>
</defs>
</svg>
