<svg width="12" height="12" viewBox="0 0 12 12" fill="none" xmlns="http://www.w3.org/2000/svg">
<g clip-path="url(#clip0_2348_9266)">
<path d="M11.3905 3.08806L9.37391 1.10791C9.2278 0.964031 8.99053 0.964031 8.84406 1.10791C8.69762 1.25146 8.69762 1.48453 8.84406 1.62825L9.99815 2.76171C7.36716 2.71256 4.94642 4.527 4.10153 7.00973L4.79475 7.33654C5.54004 5.12451 8.02164 3.27081 10.3949 3.53432L8.85059 5.05062C8.70577 5.1932 8.70577 5.42433 8.85059 5.56689C8.99573 5.70949 9.23105 5.70949 9.37618 5.56689L11.3312 3.64647C11.3511 3.63345 11.3729 3.62547 11.3901 3.60823C11.5366 3.465 11.5366 3.23194 11.3905 3.08806ZM10.498 9.83333C10.498 10.1554 10.1996 10.4166 9.83151 10.4166H1.83308C1.46499 10.4166 1.16654 10.1554 1.16654 9.83333V2.83332C1.16654 2.51123 1.46499 2.25 1.83308 2.25H5.16578V1.66667H1.16654C0.798461 1.66667 0.5 1.9279 0.5 2.25V10.4166C0.5 10.7388 0.798461 11 1.16654 11H10.498C10.8661 11 11.1646 10.7388 11.1646 10.4166V6.91665H10.498V9.83333Z" fill="#024FFD" stroke="#024FFD" stroke-width="0.5"/>
</g>
<defs>
<clipPath id="clip0_2348_9266">
<rect width="12" height="12" fill="white"/>
</clipPath>
</defs>
</svg>
