<svg width="15" height="15" viewBox="0 0 15 15" fill="none" xmlns="http://www.w3.org/2000/svg">
<g clip-path="url(#clip0_2348_9260)">
<path fill-rule="evenodd" clip-rule="evenodd" d="M12.5 0C13.8807 0 15 1.11929 15 2.5V12.5C15 13.8807 13.8807 15 12.5 15H2.5C1.11929 15 0 13.8807 0 12.5V2.5C0 1.11929 1.11929 0 2.5 0H12.5ZM11.3641 8.37927H1.875C1.87544 9.2099 2.54678 9.88315 3.37505 9.8836H7.5V11.6439C7.49993 11.7335 7.55158 11.8151 7.63249 11.8531C7.71339 11.8912 7.80895 11.8789 7.87763 11.8215L11.5114 8.78705C11.5864 8.72513 11.6144 8.62257 11.5813 8.53099C11.5482 8.43941 11.4612 8.37865 11.3641 8.37927ZM7.36778 3.14661C7.28663 3.10869 7.19091 3.12138 7.12237 3.17914L3.48858 6.21363C3.41468 6.27587 3.38732 6.37772 3.42004 6.46877C3.45276 6.55982 3.53862 6.62075 3.63513 6.6214H13.125C13.125 5.79051 12.4527 5.11708 11.6241 5.11708H7.50081V3.35598C7.50082 3.26619 7.44894 3.18453 7.36778 3.14661Z" fill="#024FFD"/>
</g>
<defs>
<clipPath id="clip0_2348_9260">
<rect width="15" height="15" fill="white"/>
</clipPath>
</defs>
</svg>
