<svg width="12" height="12" viewBox="0 0 12 12" fill="none" xmlns="http://www.w3.org/2000/svg">
<g clip-path="url(#clip0_2348_9244)">
<path fill-rule="evenodd" clip-rule="evenodd" d="M11.25 0C11.6642 0 12 0.350386 12 0.782609V11.2259C12 11.6581 11.6642 12.0085 11.25 12.0085C11.1284 12.0085 11.0085 11.9776 10.9009 11.9186L6.34911 9.42055C6.13056 9.30061 5.86944 9.30061 5.65089 9.42055L1.09911 11.9186C0.732506 12.1197 0.279014 11.9727 0.086206 11.5902C0.0295857 11.4778 0 11.3528 0 11.2259V0.782609C0 0.350386 0.335786 0 0.75 0H11.25ZM9 5.73913H3C2.72386 5.73913 2.5 5.97272 2.5 6.26087C2.5 6.54902 2.72386 6.78261 3 6.78261H9C9.27614 6.78261 9.5 6.54902 9.5 6.26087C9.5 5.97272 9.27614 5.73913 9 5.73913ZM9 2.6087H3C2.72386 2.6087 2.5 2.84229 2.5 3.13043C2.5 3.41858 2.72386 3.65217 3 3.65217H9C9.27614 3.65217 9.5 3.41858 9.5 3.13043C9.5 2.84229 9.27614 2.6087 9 2.6087Z" fill="#D0A858"/>
</g>
<defs>
<clipPath id="clip0_2348_9244">
<rect width="12" height="12" fill="white"/>
</clipPath>
</defs>
</svg>
