<svg width="16" height="16" viewBox="0 0 16 16" fill="none" xmlns="http://www.w3.org/2000/svg">
<path fill-rule="evenodd" clip-rule="evenodd" d="M1.33398 3.9987C1.33398 3.63051 1.63246 3.33203 2.00065 3.33203H14.0007C14.3688 3.33203 14.6673 3.63051 14.6673 3.9987C14.6673 4.36689 14.3688 4.66536 14.0007 4.66536H2.00065C1.63246 4.66536 1.33398 4.36689 1.33398 3.9987Z" fill="#F0B90B"/>
<path fill-rule="evenodd" clip-rule="evenodd" d="M6.66602 2.0013C6.4892 2.0013 6.31964 2.07154 6.19461 2.19656C6.06959 2.32159 5.99935 2.49116 5.99935 2.66797V4.0013C5.99935 4.36949 5.70087 4.66797 5.33268 4.66797C4.96449 4.66797 4.66602 4.36949 4.66602 4.0013V2.66797C4.66602 2.13754 4.87673 1.62883 5.2518 1.25376C5.62688 0.878682 6.13558 0.667969 6.66602 0.667969H9.33268C9.86312 0.667969 10.3718 0.878682 10.7469 1.25376C11.122 1.62883 11.3327 2.13754 11.3327 2.66797V4.0013C11.3327 4.36949 11.0342 4.66797 10.666 4.66797C10.2978 4.66797 9.99935 4.36949 9.99935 4.0013V2.66797C9.99935 2.49116 9.92911 2.32159 9.80409 2.19656C9.67906 2.07154 9.50949 2.0013 9.33268 2.0013H6.66602ZM3.33268 3.33464C3.70087 3.33464 3.99935 3.63311 3.99935 4.0013V13.3346C3.99935 13.5114 4.06959 13.681 4.19461 13.806C4.31964 13.9311 4.4892 14.0013 4.66602 14.0013H11.3327C11.5095 14.0013 11.6791 13.9311 11.8041 13.806C11.9291 13.681 11.9993 13.5114 11.9993 13.3346V4.0013C11.9993 3.63311 12.2978 3.33464 12.666 3.33464C13.0342 3.33464 13.3327 3.63311 13.3327 4.0013V13.3346C13.3327 13.8651 13.122 14.3738 12.7469 14.7488C12.3718 15.1239 11.8631 15.3346 11.3327 15.3346H4.66602C4.13558 15.3346 3.62687 15.1239 3.2518 14.7488C2.87673 14.3738 2.66602 13.8651 2.66602 13.3346V4.0013C2.66602 3.63311 2.96449 3.33464 3.33268 3.33464Z" fill="#F0B90B"/>
<path fill-rule="evenodd" clip-rule="evenodd" d="M6.66667 6.66797C7.03486 6.66797 7.33333 6.96645 7.33333 7.33464V11.3346C7.33333 11.7028 7.03486 12.0013 6.66667 12.0013C6.29848 12.0013 6 11.7028 6 11.3346V7.33464C6 6.96645 6.29848 6.66797 6.66667 6.66797Z" fill="#F0B90B"/>
<path fill-rule="evenodd" clip-rule="evenodd" d="M9.33268 6.66797C9.70087 6.66797 9.99935 6.96645 9.99935 7.33464V11.3346C9.99935 11.7028 9.70087 12.0013 9.33268 12.0013C8.96449 12.0013 8.66602 11.7028 8.66602 11.3346V7.33464C8.66602 6.96645 8.96449 6.66797 9.33268 6.66797Z" fill="#F0B90B"/>
</svg>
