<svg width="12" height="12" viewBox="0 0 12 12" fill="none" xmlns="http://www.w3.org/2000/svg">
<g clip-path="url(#clip0_2348_9281)">
<path fill-rule="evenodd" clip-rule="evenodd" d="M1.87378 10.5238C1.77333 10.5225 1.67752 10.4812 1.60743 10.4091C1.53734 10.3369 1.49872 10.2398 1.50003 10.1392C1.5003 10.1142 1.50305 10.0893 1.50827 10.0649L2.1194 7.35385C2.13378 7.29582 2.16193 7.24213 2.20145 7.19734C2.21848 7.14552 2.24719 7.09832 2.28535 7.0594L8.21057 1.10943C8.35781 0.963522 8.59478 0.963522 8.74203 1.10943L10.8914 3.26872C11.0362 3.41581 11.0362 3.65217 10.8914 3.79925L4.96515 9.74657C4.86964 9.80345 4.77002 9.85311 4.66713 9.89512L1.95715 10.5132C1.93031 10.5185 1.903 10.5212 1.87564 10.5212L1.87378 10.5238ZM2.37243 9.64842L3.9721 9.28501L2.73423 8.03824L2.37243 9.64842ZM4.70154 8.95342L10.0956 3.53929L8.4763 1.90789L3.08334 7.32202L4.70154 8.95342ZM4.82567 7.895C4.71746 7.89442 4.62016 7.82883 4.57883 7.7286C4.5375 7.62836 4.5602 7.51306 4.63643 7.43608L8.50223 3.55521C8.60114 3.4452 8.77012 3.4359 8.88046 3.53438C8.9908 3.63285 9.00108 3.80215 8.90348 3.91332C8.89685 3.92127 8.8893 3.9284 8.88098 3.93454L5.01677 7.81807C4.96565 7.86858 4.89638 7.89631 4.82461 7.895H4.82567Z" fill="#024FFD"/>
<path d="M4.58789 10.7617H10.7629" stroke="#024FFD" stroke-linecap="square"/>
</g>
<defs>
<clipPath id="clip0_2348_9281">
<rect width="12" height="12" fill="white"/>
</clipPath>
</defs>
</svg>
