<svg width="14" height="14" viewBox="0 0 14 14" fill="none" xmlns="http://www.w3.org/2000/svg">
<g id="c042&#229;&#144;&#145;&#228;&#184;&#138;&#231;&#174;&#173;&#229;&#164;&#180; 1">
<path id="Vector" d="M12.0557 6.99991L12.0557 7.01158C12.0557 7.02499 12.0545 7.03841 12.0533 7.05241L12.0557 6.99991C12.0552 7.13243 12.01 7.2609 11.9273 7.36449L11.8847 7.41233L8.38475 10.9123C8.27977 11.0169 8.13891 11.0777 7.99077 11.0822C7.84264 11.0867 7.69833 11.0347 7.58717 10.9367C7.476 10.8387 7.40632 10.702 7.39226 10.5545C7.37821 10.4069 7.42084 10.2596 7.5115 10.1423L7.55991 10.0875L10.0636 7.58324L2.91678 7.58324C2.7681 7.58308 2.62509 7.52615 2.51698 7.42408C2.40886 7.32201 2.34381 7.18252 2.33509 7.03409C2.32638 6.88567 2.37467 6.73952 2.4701 6.62551C2.56552 6.51149 2.70089 6.43822 2.84853 6.42066L2.91678 6.41658L10.0636 6.41658L7.55991 3.91233C7.45948 3.81188 7.39914 3.67824 7.39023 3.53647C7.38132 3.39471 7.42443 3.25456 7.5115 3.14233L7.55991 3.08749C7.66036 2.98706 7.794 2.92672 7.93577 2.91781C8.07753 2.90889 8.21768 2.95201 8.32991 3.03908L8.38475 3.08749L11.8847 6.58749L11.9273 6.63533L11.9314 6.63999L11.8847 6.58749C11.9912 6.69455 12.0524 6.83846 12.0557 6.98941L12.0557 6.99991Z" fill="#888C95"/>
</g>
</svg>
