<svg width="14" height="14" viewBox="0 0 14 14" fill="none" xmlns="http://www.w3.org/2000/svg">
<g id="Frame 1">
<g id="Group 7280">
<g id="Group 7279">
<path id="Vector 1547 (Stroke)" fill-rule="evenodd" clip-rule="evenodd" d="M11.8171 2.04169C12.1885 2.33512 12.2518 2.87414 11.9584 3.24561L9.33743 6.56355C9.06749 6.90527 8.58424 6.99028 8.2139 6.76119L5.0294 4.79128L2.37864 6.82315C2.00293 7.11114 1.46489 7.04003 1.1769 6.66432C0.888916 6.28861 0.960027 5.75057 1.33574 5.46258L4.4559 3.07091C4.73846 2.85432 5.1255 2.83495 5.42827 3.02225L8.46588 4.90129L10.6131 2.18298C10.9066 1.81151 11.4456 1.74825 11.8171 2.04169Z" fill="#1ABA96"/>
<path id="Vector 1548" d="M12.7429 1H10.1922C9.96314 1 9.84841 1.27698 10.0104 1.43897L12.561 3.9896C12.723 4.15159 13 4.03687 13 3.80778L13 1.25714C13 1.11513 12.8849 1 12.7429 1Z" fill="#1ABA96"/>
<path id="Rectangle 4562" d="M1 8.45713C1 8.36246 1.07675 8.28571 1.17143 8.28571H2.54286C2.63753 8.28571 2.71429 8.36246 2.71429 8.45713V12.8286C2.71429 12.9232 2.63753 13 2.54286 13H1.17143C1.07675 13 1 12.9232 1 12.8286V8.45713Z" fill="#1ABA96"/>
<path id="Rectangle 4563" d="M4.42847 7.56244C4.42847 7.48377 4.482 7.4152 4.55832 7.39613L5.92975 7.05327C6.03794 7.02622 6.14275 7.10805 6.14275 7.21958V12.8286C6.14275 12.9233 6.066 13 5.97132 13H4.5999C4.50522 13 4.42847 12.9233 4.42847 12.8286L4.42847 7.56244Z" fill="#1ABA96"/>
<path id="Rectangle 4564" d="M7.85718 8.45713C7.85718 8.36246 7.93393 8.28571 8.02861 8.28571H9.40003C9.49471 8.28571 9.57146 8.36246 9.57146 8.45713V12.8286C9.57146 12.9232 9.49471 13 9.40003 13H8.02861C7.93393 13 7.85718 12.9232 7.85718 12.8286L7.85718 8.45713Z" fill="#1ABA96"/>
<path id="Rectangle 4565" d="M11.2856 6.22857C11.2856 6.17461 11.311 6.1238 11.3542 6.09143L12.7256 5.06286C12.8387 4.9781 12.9999 5.05873 12.9999 5.2V12.8286C12.9999 12.9232 12.9232 13 12.8285 13H11.4571C11.3624 13 11.2856 12.9232 11.2856 12.8286V6.22857Z" fill="#1ABA96"/>
</g>
</g>
</g>
</svg>
