<svg width="14" height="14" viewBox="0 0 14 14" fill="none" xmlns="http://www.w3.org/2000/svg">
<g id="Frame 2">
<g id="Group 7281">
<g id="Group 7279">
<path id="Vector 1547 (Stroke)" fill-rule="evenodd" clip-rule="evenodd" d="M11.8498 5.93129C12.2063 5.61984 12.2428 5.07836 11.9314 4.72187L9.31048 1.7219C9.04831 1.42182 8.61393 1.34198 8.26219 1.52923L5.06143 3.23323L2.37887 1.17699C2.00316 0.889001 1.46513 0.960112 1.17715 1.33582C0.889161 1.71152 0.960271 2.24955 1.33598 2.53754L4.45611 4.92918C4.72264 5.13348 5.08392 5.16332 5.38034 5.00551L8.46716 3.36218L10.6404 5.84973C10.9519 6.20623 11.4933 6.24274 11.8498 5.93129Z" fill="#1ABA96"/>
<path id="Vector 1548" d="M12.7431 7.00006H10.1925C9.96338 7.00006 9.84866 6.72309 10.0106 6.5611L12.5613 4.01049C12.7232 3.8485 13.0002 3.96323 13.0002 4.19231L13.0002 6.74292C13.0002 6.88493 12.8851 7.00006 12.7431 7.00006Z" fill="#1ABA96"/>
<path id="Rectangle 4562" d="M1.00024 4.77147C1.00024 4.63021 1.16152 4.54957 1.27453 4.63433L2.64594 5.66289C2.68911 5.69526 2.71451 5.74607 2.71451 5.80003V12.8285C2.71451 12.9232 2.63776 13 2.54309 13H1.17167C1.07699 13 1.00024 12.9232 1.00024 12.8285V4.77147Z" fill="#1ABA96"/>
<path id="Rectangle 4563" d="M4.42871 6.7429C4.42871 6.64822 4.50546 6.57147 4.60014 6.57147L5.97155 6.57147C6.06623 6.57147 6.14298 6.64822 6.14298 6.7429V12.8286C6.14298 12.9232 6.06623 13 5.97155 13H4.60014C4.50546 13 4.42871 12.9232 4.42871 12.8286L4.42871 6.7429Z" fill="#1ABA96"/>
<path id="Rectangle 4564" d="M7.8573 6.01882C7.8573 5.77575 8.16339 5.66838 8.31523 5.85818L9.534 7.38165C9.55832 7.41204 9.57157 7.44981 9.57157 7.48874V12.8285C9.57157 12.9232 9.49482 13 9.40014 13H8.02873C7.93405 13 7.8573 12.9232 7.8573 12.8285V6.01882Z" fill="#1ABA96"/>
<path id="Rectangle 4565" d="M11.2858 8.45719C11.2858 8.36252 11.3625 8.28577 11.4572 8.28577H12.8286C12.9233 8.28577 13 8.36252 13 8.45719V12.8286C13 12.9233 12.9233 13 12.8286 13H11.4572C11.3625 13 11.2858 12.9233 11.2858 12.8286L11.2858 8.45719Z" fill="#1ABA96"/>
</g>
</g>
</g>
</svg>
