<svg width="14" height="14" viewBox="0 0 14 14" fill="none" xmlns="http://www.w3.org/2000/svg">
<g id="Frame 2">
<g id="Group 7281">
<g id="Group 7279">
<path id="Vector 1547 (Stroke)" fill-rule="evenodd" clip-rule="evenodd" d="M11.8496 5.93127C12.2061 5.61982 12.2426 5.07834 11.9311 4.72185L9.31023 1.72188C9.04807 1.4218 8.61368 1.34196 8.26195 1.52921L5.06118 3.23321L2.37862 1.17697C2.00292 0.888982 1.46489 0.960093 1.1769 1.3358C0.888917 1.7115 0.960027 2.24953 1.33573 2.53752L4.45587 4.92917C4.72239 5.13346 5.08367 5.1633 5.3801 5.00549L8.46692 3.36216L10.6402 5.84971C10.9516 6.20621 11.4931 6.24272 11.8496 5.93127Z" fill="#E05A59"/>
<path id="Vector 1548" d="M12.7428 7.00005H10.1922C9.96314 7.00005 9.84841 6.72307 10.0104 6.56108L12.561 4.01047C12.723 3.84849 13 3.96321 13 4.1923L13 6.74291C13 6.88492 12.8849 7.00005 12.7428 7.00005Z" fill="#E05A59"/>
<path id="Rectangle 4562" d="M1 4.7715C1 4.63024 1.16127 4.5496 1.27428 4.63436L2.6457 5.66292C2.68886 5.69529 2.71427 5.7461 2.71427 5.80006V12.8286C2.71427 12.9232 2.63752 13 2.54284 13H1.17143C1.07675 13 1 12.9232 1 12.8286V4.7715Z" fill="#E05A59"/>
<path id="Rectangle 4563" d="M4.42871 6.74291C4.42871 6.64823 4.50546 6.57148 4.60014 6.57148L5.97155 6.57148C6.06623 6.57148 6.14298 6.64823 6.14298 6.74291V12.8286C6.14298 12.9232 6.06623 13 5.97155 13H4.60014C4.50546 13 4.42871 12.9232 4.42871 12.8286L4.42871 6.74291Z" fill="#E05A59"/>
<path id="Rectangle 4564" d="M7.85718 6.01883C7.85718 5.77576 8.16327 5.66839 8.31511 5.8582L9.53388 7.38166C9.5582 7.41205 9.57145 7.44982 9.57145 7.48875V12.8286C9.57145 12.9232 9.4947 13 9.40002 13H8.0286C7.93393 13 7.85718 12.9232 7.85718 12.8286V6.01883Z" fill="#E05A59"/>
<path id="Rectangle 4565" d="M11.2856 8.45718C11.2856 8.3625 11.3624 8.28575 11.4571 8.28575H12.8285C12.9232 8.28575 12.9999 8.3625 12.9999 8.45718V12.8286C12.9999 12.9232 12.9232 13 12.8285 13H11.4571C11.3624 13 11.2856 12.9232 11.2856 12.8286L11.2856 8.45718Z" fill="#E05A59"/>
</g>
</g>
</g>
</svg>
