<svg width="12" height="12" viewBox="0 0 12 12" fill="none" xmlns="http://www.w3.org/2000/svg">
<g id="Frame 4">
<g id="Group 7280">
<g id="Group 7279">
<path id="Vector 1547 (Stroke)" fill-rule="evenodd" clip-rule="evenodd" d="M10.8171 1.04169C11.1885 1.33512 11.2518 1.87414 10.9584 2.24561L8.33743 5.56355C8.06749 5.90527 7.58424 5.99028 7.2139 5.76119L4.0294 3.79128L1.37864 5.82315C1.00293 6.11114 0.464894 6.04003 0.176905 5.66432C-0.111084 5.28861 -0.0399731 4.75057 0.335736 4.46258L3.4559 2.07091C3.73846 1.85432 4.1255 1.83495 4.42827 2.02225L7.46588 3.90129L9.61315 1.18298C9.90658 0.811511 10.4456 0.748251 10.8171 1.04169Z" fill="#E05A59"/>
<path id="Vector 1548" d="M11.7428 0H9.19211C8.96302 0 8.84829 0.276979 9.01028 0.43897L11.5609 2.9896C11.7229 3.15159 11.9999 3.03687 11.9999 2.80778L11.9999 0.257144C11.9999 0.115127 11.8848 0 11.7428 0Z" fill="#E05A59"/>
<path id="Rectangle 4562" d="M0 7.45713C0 7.36246 0.0767512 7.28571 0.171429 7.28571H1.54286C1.63753 7.28571 1.71429 7.36246 1.71429 7.45713V11.8286C1.71429 11.9232 1.63753 12 1.54286 12H0.171429C0.0767512 12 0 11.9232 0 11.8286V7.45713Z" fill="#E05A59"/>
<path id="Rectangle 4563" d="M3.42859 6.5624C3.42859 6.48374 3.48213 6.41517 3.55844 6.39609L4.92987 6.05324C5.03807 6.02619 5.14287 6.10802 5.14287 6.21955V11.8286C5.14287 11.9232 5.06612 12 4.97145 12H3.60002C3.50534 12 3.42859 11.9232 3.42859 11.8286L3.42859 6.5624Z" fill="#E05A59"/>
<path id="Rectangle 4564" d="M6.85718 7.45713C6.85718 7.36246 6.93393 7.28571 7.02861 7.28571H8.40003C8.49471 7.28571 8.57146 7.36246 8.57146 7.45713V11.8286C8.57146 11.9232 8.49471 12 8.40003 12H7.02861C6.93393 12 6.85718 11.9232 6.85718 11.8286L6.85718 7.45713Z" fill="#E05A59"/>
<path id="Rectangle 4565" d="M10.2858 5.22857C10.2858 5.17461 10.3112 5.1238 10.3543 5.09143L11.7258 4.06286C11.8388 3.9781 12.0001 4.05873 12.0001 4.2V11.8286C12.0001 11.9232 11.9233 12 11.8286 12H10.4572C10.3625 12 10.2858 11.9232 10.2858 11.8286V5.22857Z" fill="#E05A59"/>
</g>
</g>
</g>
</svg>
