<svg width="16" height="16" viewBox="0 0 16 16" fill="none" xmlns="http://www.w3.org/2000/svg">
<g id="information">
<path id="Subtract" fill-rule="evenodd" clip-rule="evenodd" d="M2 1.99967V13.9997C2 14.3679 2.29848 14.6663 2.66667 14.6663L6.125 14.6663H7.60062C6.61612 13.7532 6 12.4484 6 10.9997C6 8.23825 8.23858 5.99968 11 5.99968C12.1256 5.99968 13.1643 6.37162 14 6.99931V5.90444V1.99967C14 1.63148 13.7015 1.33301 13.3333 1.33301H2.66667C2.29848 1.33301 2 1.63148 2 1.99967ZM4 3.99968C4 3.63149 4.29848 3.33301 4.66667 3.33301H9.66667C10.0349 3.33301 10.3333 3.63149 10.3333 3.99968C10.3333 4.36786 10.0349 4.66634 9.66667 4.66634H4.66667C4.29848 4.66634 4 4.36786 4 3.99968ZM4.66667 5.99968C4.29848 5.99968 4 6.29815 4 6.66634C4 7.03453 4.29848 7.33301 4.66667 7.33301H6C6.36819 7.33301 6.66667 7.03453 6.66667 6.66634C6.66667 6.29815 6.36819 5.99968 6 5.99968H4.66667Z" fill="#888C95"/>
<path id="Subtract_2" fill-rule="evenodd" clip-rule="evenodd" d="M11.334 15.333C13.5431 15.333 15.334 13.5421 15.334 11.333C15.334 9.12387 13.5431 7.33301 11.334 7.33301C9.12485 7.33301 7.33398 9.12387 7.33398 11.333C7.33398 13.5421 9.12485 15.333 11.334 15.333ZM11.334 9.99967C11.334 9.63148 11.0355 9.33301 10.6673 9.33301C10.2991 9.33301 10.0007 9.63148 10.0007 9.99967V12.133C10.0007 12.435 10.2037 12.6993 10.4955 12.7772L12.4955 13.3105C12.8513 13.4054 13.2166 13.1939 13.3115 12.8381C13.4063 12.4824 13.1949 12.1171 12.8391 12.0222L11.334 11.6208V9.99967Z" fill="#888C95"/>
</g>
</svg>
