<svg width="10" height="10" viewBox="0 0 10 10" fill="none" xmlns="http://www.w3.org/2000/svg">
<g clip-path="url(#clip0_124_1152)">
<path d="M7.56823 4.29132L5.00542 4.3L2.42921 4.27472C2.27261 4.27472 2.13494 4.2653 2.0892 4.22638C1.97877 4.13242 1.99084 3.94051 2.0892 3.83167L4.81602 0.513454C4.86799 0.455442 4.93737 0.430641 5.00563 0.434369C5.07392 0.430633 5.14307 0.455442 5.19527 0.513454L7.92208 3.83166C8.02022 3.9405 8.03094 4.13066 7.92208 4.22612C7.87144 4.2705 7.78329 4.29132 7.56823 4.29132Z" fill="#888C95"/>
</g>
<g clip-path="url(#clip1_124_1152)">
<path d="M2.43177 5.70868L4.99457 5.7L7.57079 5.72528C7.72739 5.72528 7.86505 5.7347 7.91079 5.77362C8.02123 5.86758 8.00916 6.05949 7.91079 6.16833L5.18398 9.48655C5.13201 9.54456 5.06263 9.56936 4.99437 9.56563C4.92608 9.56937 4.85693 9.54456 4.80473 9.48655L2.07792 6.16834C1.97978 6.0595 1.96906 5.86934 2.07792 5.77388C2.12856 5.7295 2.21671 5.70868 2.43177 5.70868Z" fill="#F0B90B"/>
</g>
<defs>
<clipPath id="clip0_124_1152">
<rect width="6" height="4" fill="white" transform="translate(8 4.3) rotate(-180)"/>
</clipPath>
<clipPath id="clip1_124_1152">
<rect width="6" height="4" fill="white" transform="translate(2 5.7)"/>
</clipPath>
</defs>
</svg>
