<svg width="15" height="15" viewBox="0 0 15 15" fill="none" xmlns="http://www.w3.org/2000/svg">
<g clip-path="url(#clip0_2348_9133)">
<path fill-rule="evenodd" clip-rule="evenodd" d="M9.24194 13.9998H2.66129C2.01987 13.9998 1.5 13.4863 1.5 12.8527V5.20565C1.5 4.57209 2.01987 4.05859 2.66129 4.05859H9.24194C9.88336 4.05859 10.4032 4.57209 10.4032 5.20565V12.8527C10.4032 13.4863 9.88336 13.9998 9.24194 13.9998ZM8.85484 5.58801H3.04839V12.4704H8.85484V5.58801Z" fill="#024FFD"/>
<path fill-rule="evenodd" clip-rule="evenodd" d="M12.7267 11.3235C12.2989 11.3235 11.9525 10.9809 11.9525 10.5588V2.52941H5.37185C4.94411 2.52941 4.59766 2.18721 4.59766 1.76471C4.59766 1.34221 4.94411 1 5.37185 1H12.7267C13.1544 1 13.5009 1.34221 13.5009 1.76471V10.5588C13.5009 10.9809 13.1544 11.3235 12.7267 11.3235ZM5.37185 9.79412H6.92024C7.34798 9.79412 7.69443 10.1363 7.69443 10.5588C7.69443 10.9809 7.34798 11.3235 6.92024 11.3235H5.37185C4.94411 11.3235 4.59766 10.9809 4.59766 10.5588C4.59766 10.1363 4.94411 9.79412 5.37185 9.79412Z" fill="#024FFD"/>
</g>
<defs>
<clipPath id="clip0_2348_9133">
<rect width="15" height="15" fill="white"/>
</clipPath>
</defs>
</svg>
