<?xml version="1.0" encoding="UTF-8"?>
<svg width="30px" height="30px" viewBox="0 0 30 30" version="1.1" xmlns="http://www.w3.org/2000/svg" xmlns:xlink="http://www.w3.org/1999/xlink">
    <title>icon_hua05@2x</title>
    <g id="Saas设计规范3.0" stroke="none" stroke-width="1" fill="none" fill-rule="evenodd">
        <g id="6.5-闪兑图标规范" transform="translate(-474.000000, -512.000000)">
            <g id="icon_hua05" transform="translate(474.000000, 512.000000)">
                <rect id="矩形_1263" fill-rule="nonzero" x="0" y="0" width="30" height="30" rx="2"></rect>
                <path d="M25,0 C27.7614237,-5.07265313e-16 30,2.23857625 30,5 L30,25 C30,27.7614237 27.7614237,30 25,30 L5,30 C2.23857625,30 -1.43817996e-15,27.7614237 0,25 L0,5 C-3.38176876e-16,2.23857625 2.23857625,-1.26909153e-15 5,0 L25,0 Z M22.7281348,16.7585362 L3.75,16.7585362 C3.75088847,18.4198063 5.09356197,19.7663016 6.75010736,19.7671926 L6.75010736,19.7671926 L15,19.7671926 L15,23.2877778 C14.9998678,23.46702 15.103156,23.6301539 15.264971,23.7062747 C15.4267861,23.7823955 15.6179055,23.7577563 15.7552605,23.6430663 L15.7552605,23.6430663 L23.0228314,17.5740942 C23.1727915,17.4502541 23.2287626,17.2451464 23.1625785,17.0619873 C23.0963943,16.8788281 22.9223921,16.7572945 22.7281348,16.7585362 L22.7281348,16.7585362 Z M14.735569,6.29322387 C14.5732589,6.21737898 14.381826,6.24275401 14.2447395,6.35828485 L14.2447395,6.35828485 L6.97716863,12.427257 C6.82936846,12.5517419 6.77464642,12.7554431 6.84008693,12.9375394 C6.90552744,13.1196357 7.0772474,13.2414957 7.27025479,13.2428054 L7.27025479,13.2428054 L26.25,13.2428054 C26.25,11.5810246 24.9053464,10.2341585 23.2482823,10.2341585 L23.2482823,10.2341585 L15.0016104,10.2341585 L15.0016104,6.71195831 C15.0016404,6.53238322 14.8978792,6.36906875 14.735569,6.29322387 Z" id="形状结合" fill="#024FFD"></path>
            </g>
        </g>
    </g>
</svg>