<?xml version="1.0" encoding="UTF-8"?>
<svg width="24px" height="24px" viewBox="0 0 24 24" version="1.1" xmlns="http://www.w3.org/2000/svg" xmlns:xlink="http://www.w3.org/1999/xlink">
    <title>icon_bian4</title>
    <g id="Joybit蓝色" stroke="none" stroke-width="1" fill="none" fill-rule="evenodd">
        <g id="0-图标下载" transform="translate(-194.000000, -739.000000)">
            <g id="编辑彩色" transform="translate(186.000000, 739.000000)">
                <g id="icon_bian4" transform="translate(8.000000, 0.000000)">
                    <path d="M0,0 L24,0 L24,24 L0,24 L0,0 Z" id="矩形"></path>
                    <g id="icon_bian01" transform="translate(3.000000, 2.000000)">
                        <path d="M0.747566434,19.047619 C0.546661448,19.0449633 0.355039706,18.9624182 0.2148648,18.8181466 C0.0746898938,18.673875 -0.00255305232,18.4796977 6.44164249e-05,18.2783406 C0.00060475564,18.2283968 0.00610247339,18.1786281 0.016541831,18.1297903 L1.23879803,12.7077034 C1.26755815,12.5916462 1.32385216,12.4842647 1.40289479,12.3946866 C1.43696107,12.2910377 1.49437784,12.1966403 1.57069696,12.1188075 L13.4211298,0.218865335 C13.7156191,-0.0729551115 14.1895641,-0.0729551115 14.4840534,0.218865335 L18.7828592,4.5374355 C19.0723803,4.83161117 19.0723803,5.30433359 18.7828592,5.59850925 L6.93030891,17.493146 C6.73927836,17.606901 6.5400446,17.7062103 6.33426713,17.7902467 L0.914309917,19.0263976 C0.860612471,19.0370236 0.806005922,19.0423544 0.751271845,19.0423137 L0.747566434,19.047619 Z M1.74485127,17.2968474 L4.94420876,16.5700118 L2.46846505,14.0764885 L1.74485127,17.2968474 Z M6.4030819,15.9068407 L17.1911206,5.07858311 L13.9525916,1.81578133 L3.1666703,12.644039 L6.4030819,15.9068407 Z M6.65134442,13.7899986 C6.43492338,13.7888441 6.24032178,13.6576594 6.15765674,13.4571941 C6.0749917,13.2567288 6.12040373,13.0261242 6.27286318,12.8721698 L14.0044673,5.11041533 C14.202283,4.89040778 14.5402333,4.87179376 14.7609119,5.068751 C14.9815905,5.26570825 15.0021601,5.604304 14.8069534,5.82664011 C14.7937037,5.84254104 14.7785975,5.8567906 14.7619592,5.86908306 L7.03353107,13.6361429 C6.93129682,13.737155 6.79276328,13.7926168 6.64922704,13.7899986 L6.65134442,13.7899986 Z" id="kSASSVGImageLayerID1" fill="#024FFD"></path>
                        <line x1="6.175" y1="19.5238095" x2="18.525" y2="19.5238095" id="kSASSVGImageLayerID2" stroke="#024FFD" stroke-width="1.9047619" stroke-linecap="square"></line>
                    </g>
                </g>
            </g>
        </g>
    </g>
</svg>