<?xml version="1.0" encoding="UTF-8"?>
<svg width="26px" height="26px" viewBox="0 0 26 26" version="1.1" xmlns="http://www.w3.org/2000/svg" xmlns:xlink="http://www.w3.org/1999/xlink">
    <title>icon_notice</title>
    <g id="中文模版(定)" stroke="none" stroke-width="1" fill="none" fill-rule="evenodd">
        <g id="01-首页" transform="translate(-30.000000, -495.000000)">
            <g id="公告" transform="translate(0.000000, 468.000000)">
                <g id="icon_notice" transform="translate(30.000000, 27.000000)">
                    <rect id="矩形" x="0" y="0" width="26" height="26"></rect>
                    <g id="icon" transform="translate(0.000000, 2.000000)">
                        <path d="M0,0 L13.2212006,0 L13.2212006,9.92796958 L0,9.92796958 L0,0 Z M3.00481833,3.10249049 L10.2163823,3.10249049 L10.2163823,6.82547908 L3.00481833,6.82547908 L3.00481833,3.10249049 Z M1.50240916,12.409962 L11.7187915,12.409962 C12.5485491,12.409962 13.2212006,13.1044781 13.2212006,13.9612072 C13.2212006,14.8179363 12.5485491,15.5124525 11.7187915,15.5124525 L1.50240916,15.5124525 C0.672651494,15.5124525 1.38555833e-13,14.8179363 1.38555833e-13,13.9612072 C1.38555833e-13,13.1044781 0.672651494,12.409962 1.50240916,12.409962 L1.50240916,12.409962 Z M17.1274645,0 L20.7332465,0 C21.5630041,0 22.2356556,0.694516153 22.2356556,1.55124525 C22.2356556,2.40797434 21.5630041,3.10249049 20.7332465,3.10249049 L17.1274645,3.10249049 C16.2977068,3.10249049 15.6250553,2.40797434 15.6250553,1.55124525 C15.6250553,0.694516153 16.2977068,0 17.1274645,0 Z M17.1274645,5.58448289 L20.7332465,5.58448289 C21.5630041,5.58448289 22.2356556,6.27899904 22.2356556,7.13572813 C22.2356556,7.99245723 21.5630041,8.68697338 20.7332465,8.68697338 L17.1274645,8.68697338 C16.2977068,8.68697338 15.6250553,7.99245723 15.6250553,7.13572813 C15.6250553,6.27899904 16.2977068,5.58448289 17.1274645,5.58448289 Z M1.50240916,17.9944449 L11.7187915,17.9944449 C12.5485491,17.9944449 13.2212006,18.688961 13.2212006,19.5456901 C13.2212006,20.4024192 12.5485491,21.0969353 11.7187915,21.0969353 L1.50240916,21.0969353 C0.672651494,21.0969353 1.38555833e-13,20.4024192 1.38555833e-13,19.5456901 C1.38555833e-13,18.688961 0.672651494,17.9944449 1.50240916,17.9944449 L1.50240916,17.9944449 Z" id="矩形_810_拷贝_3" fill="#878999"></path>
                        <path d="M15.3666409,11.3129213 C17.9033086,12.2771754 23.3312124,14.2354674 25.6707639,15.1420151 C26.1671599,15.3343695 26.083025,15.8462804 25.5475664,16.0541473 C23.883498,16.7007063 21.1491133,17.8027109 21.005483,17.9503895 C20.6701453,18.2972479 19.7825219,20.6805811 19.185765,22.359649 C18.8251868,23.3816093 18.2512665,23.002485 18.0565543,22.4490007 C17.1478972,19.8658671 15.3672419,14.7597883 14.5030561,12.2554579 C14.3317815,11.758439 14.5276956,10.9939853 15.3666409,11.3129213 Z" id="kSASSVGImageLayerID1" fill="#024FFD"></path>
                    </g>
                </g>
            </g>
        </g>
    </g>
</svg>