<?xml version="1.0" encoding="UTF-8"?>
<svg width="46px" height="44px" viewBox="0 0 46 44" version="1.1" xmlns="http://www.w3.org/2000/svg" xmlns:xlink="http://www.w3.org/1999/xlink">
    <title>icon_shequ1</title>
    <g id="中文模版(定)" stroke="none" stroke-width="1" fill="none" fill-rule="evenodd">
        <g id="01-首页" transform="translate(-253.000000, -883.000000)">
            <g id="快捷入口" transform="translate(30.000000, 746.000000)">
                <g id="跟单社区" transform="translate(198.000000, 137.000000)">
                    <g id="icon_shequ1" transform="translate(26.000000, 0.000000)">
                        <path d="M0,0 L44,0 L44,44 L0,44 L0,0 Z" id="矩形"></path>
                        <g id="icon_2" transform="translate(1.000000, 4.000000)" fill-rule="nonzero" stroke-width="1.05">
                            <path d="M36.7509243,16.2733551 C34.6849635,16.2733551 33.0034671,14.5193145 33.0034671,12.3608579 L33.0034671,11.3083685 C33.0034671,9.1540406 34.6849635,7.39587132 36.7509243,7.39587132 C38.8170498,7.39587132 40.4983897,9.14992817 40.4983897,11.3083685 L40.4983897,12.3649216 C40.5026643,14.5276044 38.8170498,16.2733551 36.7509243,16.2733551 Z M36.7509243,8.87340386 C35.525547,8.87340386 34.5008027,9.96297012 34.5008027,11.296015 L34.5008027,12.3691478 C34.5008027,13.7104825 35.5087452,14.7917426 36.7509243,14.7917426 C37.9889853,14.7917426 39.0012231,13.7021926 39.0012231,12.3691478 L39.0012231,11.3125947 C39.0053287,9.97122749 37.9931034,8.88166123 36.7509243,8.88166123 L36.7509243,8.87340386 Z M2.17485781,33.0998563 C0.844841583,32.328085 0.0209017516,30.9288837 0.00417244359,29.4059844 L0.00417244359,20.3922865 C0.00417244359,18.5350288 1.53075639,17.024483 3.41703692,17.0204194 L5.25731022,17.0204194 C5.87212382,17.0204194 6.45766607,17.2639142 6.88845069,17.6972635 L10.5689973,21.4571294 L15.2616703,21.4571294 L15.3411493,22.1092665 C15.3620527,22.2825412 15.5209943,23.8426637 14.5339388,24.9322137 C13.9107573,25.5967043 13.0157162,25.9474799 12.0997553,25.8938395 L7.45307307,25.8938395 L3.52995481,21.9730524 L4.5964729,20.9329166 L8.07625462,24.412227 L12.1039393,24.412227 C12.5849151,24.4533513 13.0575395,24.2841403 13.4004936,23.9540081 C13.6430817,23.6609365 13.7936389,23.3020336 13.8312782,22.9263883 L9.93326381,22.9263883 L5.8051967,18.7167559 C5.66300747,18.572252 5.47061054,18.4896783 5.26566169,18.4896783 L3.42540487,18.4896783 C2.91514121,18.4896783 2.42579742,18.6878226 2.06610742,19.0426619 C1.70641742,19.3976637 1.50148504,19.8805897 1.50148504,20.379933 L1.50148504,29.3936308 C1.52657241,30.3965435 2.07447537,31.3128188 2.95696448,31.8162257 L2.17485781,33.0998563 L2.17485781,33.0998563 Z" id="形状" stroke="#878999" fill="#878999"></path>
                            <path d="M5.25312624,16.2733551 C3.18701718,16.2733551 1.50566901,14.5276044 1.50566901,12.3691478 L1.50566901,11.3125947 C1.50566901,9.15816929 3.18701718,7.4 5.25312624,7.4 C7.31925178,7.4 9.00058347,9.1540406 9.00058347,11.3125947 L9.00058347,12.3691478 C9.00058347,14.5276044 7.31925178,16.2733551 5.25312624,16.2733551 Z M5.25312624,8.8733876 C4.02768302,8.8733876 3.0029882,9.96295387 3.0029882,11.296015 L3.0029882,12.3691478 C3.0029882,13.7104825 4.01094712,14.7917426 5.25312624,14.7917426 C6.49113786,14.7917426 7.50328076,13.7021926 7.50328076,12.3691478 L7.50328076,11.3125947 C7.50328076,9.97121124 6.49530536,8.88164497 5.25312624,8.88164497 L5.25312624,8.8733876 L5.25312624,8.8733876 Z" id="形状" stroke="#878999" fill="#878999"></path>
                            <path d="M20.9999086,8.88164497 C18.933783,8.88164497 17.2524513,7.12760437 17.2524513,4.96909901 L17.2524513,3.91254596 C17.2524513,1.74165455 18.9380658,0 20.9999086,0 C23.0660341,0 24.7516486,1.74165455 24.7516486,3.91254596 L24.7516486,4.96909901 C24.7516486,7.12347569 23.0703169,8.88164497 20.9999086,8.88164497 L20.9999086,8.88164497 Z M20.9999086,1.48164497 C19.7745312,1.48164497 18.749787,2.57122749 18.749787,3.90428859 L18.749787,4.96084164 C18.749787,6.30217637 19.7577295,7.38348526 20.9999086,7.38348526 C22.2379696,7.38348526 23.2502072,6.293919 23.2502072,4.96084164 L23.2502072,3.91254596 C23.254313,2.57122749 22.2295687,1.48164497 20.9999086,1.48164497 L20.9999086,1.48164497 Z" id="形状" stroke="#024FFD" fill="#024FFD"></path>
                            <path d="M27.750438,17.0204194 L26.2489843,17.0204194 L26.2489843,13.9456875 C26.2489843,12.2246438 22.5684047,11.1227403 20.6235156,11.1227403 C18.6829093,11.1227403 14.9981787,12.2205802 14.9981787,13.9456875 L14.9981787,17.0204194 L13.4966756,17.0204194 L13.4966756,13.9456875 C13.4966756,10.9411107 18.214436,9.64517522 20.6193975,9.64517522 C23.0241944,9.64517522 27.7420371,10.9452394 27.7420371,13.9456875 L27.7420371,17.0204194 L27.750438,17.0204194 Z M39.8292751,33.0998563 L39.0471684,31.8368691 C39.9254736,31.3334622 40.4774617,30.4171869 40.5026643,29.4142742 L40.5026643,20.3922865 C40.5026643,19.348087 39.6452791,18.506258 38.587096,18.5020318 L36.7468062,18.5020318 C36.5418903,18.5020318 36.3494934,18.5846055 36.2073371,18.7291095 L32.075086,22.9346782 L28.1770716,22.9346782 C28.2146285,23.3060973 28.3610676,23.6609365 28.5994224,23.9540081 C28.9423765,24.2924302 29.4192507,24.4616412 29.900243,24.4203544 L33.9362957,24.4203544 L37.4160774,20.9412064 L38.4908975,21.9811797 L34.5551615,25.9021294 L29.900243,25.9021294 C28.9883343,25.9515435 28.101793,25.6007679 27.4784797,24.9405035 C26.4957399,23.8467273 26.6504152,22.2908311 26.6713351,22.1173938 L26.7507317,21.4654193 L31.4310175,21.4654193 L35.1114324,17.7013272 C35.5339479,17.2679779 36.1193748,17.0244485 36.7300044,17.0244485 L38.5702942,17.0244485 C39.4779201,17.0204194 40.3521072,17.3754212 40.9918928,18.0109785 C41.636126,18.6423096 41.9957172,19.5049445 41.9957172,20.4005764 L41.9957172,29.4142742 C41.9831982,30.9288837 41.1592518,32.328085 39.8292751,33.0998563 L39.8292751,33.0998563 Z" id="形状" stroke="#024FFD" fill="#024FFD"></path>
                            <path d="M5.1039075,24.7866824 L7.26892109,26.1218827 L2.02648504,34.4075396 L2.02648504,34.9974512 L39.9776643,34.9974512 L39.9776643,34.4077142 L34.7308048,26.1263138 L36.8961041,24.7907124 L42.525,33.6780699 L42.525,37.525 L-0.525,37.525 L-0.525,33.6740055 L5.1039075,24.7866824 Z M30.6809877,15.756645 L34.3596746,21.1995309 L32.2312389,22.5971549 L29.3202293,18.2882574 L12.6839823,18.2882574 L9.77290218,22.5971569 L7.64477696,21.1997 L11.3188425,15.756645 L30.6809877,15.756645 Z" id="形状" stroke="#878999" fill="#878999"></path>
                        </g>
                    </g>
                </g>
            </g>
        </g>
    </g>
</svg>