<?xml version="1.0" encoding="UTF-8"?>
<svg width="44px" height="44px" viewBox="0 0 44 44" version="1.1" xmlns="http://www.w3.org/2000/svg" xmlns:xlink="http://www.w3.org/1999/xlink">
    <title>icon_jifen2</title>
    <g id="Saas设计规范3.0" stroke="none" stroke-width="1" fill="none" fill-rule="evenodd">
        <g id="6.3-首页快捷入口图标规范" transform="translate(-677.000000, -236.000000)">
            <g id="币王" transform="translate(260.000000, 236.000000)">
                <g id="icon_jifen2" transform="translate(417.000000, 0.000000)">
                    <path d="M0,0 L44,0 L44,44 L0,44 L0,0 Z" id="矩形"></path>
                    <g id="icon_jifen" transform="translate(1.000000, 2.000000)" fill-rule="nonzero">
                        <path d="M42.5854721,12.3764032 C42.5662893,12.271316 42.5375152,12.1662288 42.4991497,12.0659183 L38.8784046,3.09051827 C38.2453737,1.21805589 36.4182163,0.00477668975 34.2217908,0 L8.88137114,0 C6.71851549,0 4.99206753,1.15118223 4.36383229,2.99976117 L0.484120051,12.132792 L0.484120051,12.1375687 C0.460141607,12.209219 0.440958851,12.285646 0.426571785,12.3620731 C-0.201663448,14.2775257 -0.134523805,16.3601624 0.618399337,18.2278481 C1.37132248,20.1003105 2.7764593,21.6527347 4.56045553,22.5985192 C5.72101222,23.2194889 7.08778353,23.5299737 8.61760826,23.5299737 C11.1065707,23.5299737 13.4516626,22.4647719 15.0821968,20.6018629 C16.7079353,22.4504418 19.0434357,23.510867 21.5180111,23.5156437 C23.9781995,23.5013136 26.3041086,22.4408885 27.91546,20.5923095 C29.5411985,22.4456652 31.8814946,23.5060903 34.3608658,23.5060903 L34.3944356,23.5060903 C35.9578301,23.4965369 37.3437842,23.171722 38.5139323,22.5316456 C42.139473,20.5636494 43.8515339,16.2932888 42.5854721,12.3764032 L42.5854721,12.3764032 Z M29.7426174,17.3393838 C29.4596718,17.0241223 28.9465331,16.6515405 28.1072876,16.6515405 C27.4406868,16.6515405 26.8268386,16.9142584 26.467162,17.3584906 C26.2897215,17.5638882 26.1410551,17.7931693 26.0307543,18.0367805 C25.0572295,19.6274182 23.35476,20.5875328 21.4844413,20.6066396 C19.6237141,20.5970862 17.8732876,19.6083114 16.9045585,18.0272271 C16.8278275,17.8743731 16.7031396,17.6212085 16.511312,17.4062575 C16.1324526,16.9572486 15.5138088,16.6993074 14.8136382,16.6993074 C14.1518331,16.6993074 13.552372,16.9381419 13.2166738,17.3393838 C12.9529109,17.6259852 12.8186317,17.92214 12.751492,18.0702173 C11.7587844,19.6656317 10.0371321,20.6209697 8.15242645,20.6257464 C7.15012749,20.6257464 6.29169919,20.4394555 5.60112,20.0716503 C3.22245836,18.8153809 2.133837,16.0687843 3.02103943,13.5323621 C3.03542649,13.4845952 3.04981356,13.441605 3.05940494,13.3938381 L7.01105251,4.09362312 L7.01105251,4.08884643 C7.09257922,3.85001194 7.30358953,3.22426558 8.4305764,3.22426558 L34.6294243,3.22426558 C35.2528639,3.2624791 35.9242603,3.4010031 36.1832275,4.1509434 L36.1832275,4.15572009 L39.8807036,13.3221877 C39.8950906,13.3890614 39.9142734,13.455935 39.9286605,13.5037019 L39.9286605,13.5084786 C40.7966801,16.0114641 39.7320372,18.7485073 37.4013325,20.0191068 C36.7059576,20.4012419 35.8283465,20.5970862 34.8020691,20.6018629 L34.7876821,20.6018629 C32.9269548,20.6018629 31.166937,19.6178648 30.1934122,18.0367805 C30.0783157,17.7788393 29.9296493,17.5447815 29.7426174,17.3393838 L29.7426174,17.3393838 Z M38.1878254,25.5170767 C37.2958273,25.5170767 36.6244309,26.2383568 36.6244309,27.1936948 L36.6292266,36.0831144 C36.6292266,36.4795797 36.3031197,36.8043946 35.9050775,36.8043946 L6.56505345,36.8235013 C6.17180697,36.8235013 5.84570013,36.5034631 5.84570013,36.1117745 L5.83610875,27.1936948 C5.83610875,26.2383568 5.15991663,25.5170767 4.2727142,25.5170767 C3.86987635,25.5170767 3.51499537,25.6603774 3.2464368,25.927872 C2.93951272,26.2335801 2.76686792,26.682589 2.77156629,27.1936948 L2.78125499,35.935037 C2.78125499,37.0241223 3.18409285,38.0463339 3.91783323,38.8058276 C4.661165,39.5748746 5.66825965,40 6.75208532,40 L35.7324328,39.9808932 C37.9576324,39.9761166 39.6984674,38.1848579 39.6984674,35.9063769 L39.6936717,27.1936948 C39.688876,26.2096967 39.0702322,25.5170767 38.1878254,25.5170767 L38.1878254,25.5170767 Z" id="形状" fill="#878999"></path>
                        <rect id="矩形_1251" fill="#024FFD" x="21.5969778" y="8.15228426" width="13.9593909" height="3.8071066" rx="1.9035533"></rect>
                        <path d="M13.7058341,35.2710771 C12.8617929,35.2710771 12.1712137,34.5832338 12.1712137,33.7425364 L12.1712137,27.0456174 C12.1712137,26.20492 12.8617929,25.5170767 13.7058341,25.5170767 C14.5498753,25.5170767 15.2404545,26.20492 15.2404545,27.0456174 L15.2404545,33.7425364 C15.2404545,34.5832338 14.5498753,35.2710771 13.7058341,35.2710771 Z" id="路径" fill="#024FFD"></path>
                    </g>
                </g>
            </g>
        </g>
    </g>
</svg>