<?xml version="1.0" encoding="UTF-8"?>
<svg width="44px" height="44px" viewBox="0 0 44 44" version="1.1" xmlns="http://www.w3.org/2000/svg" xmlns:xlink="http://www.w3.org/1999/xlink">
    <title>icon_chong4</title>
    <g id="Febit" stroke="none" stroke-width="1" fill="none" fill-rule="evenodd">
        <g id="1-首页" transform="translate(-253.000000, -882.000000)">
            <g id="快捷入口1" transform="translate(0.000000, 744.000000)">
                <g id="聊天室" transform="translate(231.000000, 138.000000)">
                    <g id="icon_chong4" transform="translate(22.000000, 0.000000)">
                        <path d="M0,0 L44,0 L44,44 L0,44 L0,0 Z" id="矩形"></path>
                        <g id="icon_chong" transform="translate(0.000000, 1.000000)">
                            <path d="M32.3398829,41.2247559 C36.6927855,39.579392 39.9606725,35.5588917 41.5124373,31.1326764 C42.5191263,28.2598801 43,30.6819534 43,30.737892 C43,34.1758602 43,38.3834652 43,40.8691927 C43,42.527416 42.5216943,43 40.8909609,43 C38.4320204,43 34.3288641,43 31.364011,43 C30.9158803,43 28.8992923,42.5254871 32.3398829,41.2247559 Z" id="路径" fill="#024FFD"></path>
                            <path d="M20.5446727,41.1501712 C9.19823519,41.1501712 0,31.9383196 0,20.5750856 C0,9.21185161 9.19823519,0 20.5446727,0 C31.8911102,0 41.0893454,9.21185161 41.0893454,20.5750856 C41.0893454,31.9383196 31.8911102,41.1501712 20.5446727,41.1501712 Z M20.5446727,3.85782855 C11.3252508,3.85782855 3.85212613,11.3420159 3.85212613,20.5750856 C3.85212613,29.8075123 11.3252508,37.2923427 20.5446727,37.2923427 C29.7634526,37.2923427 37.2372193,29.8075123 37.2372193,20.5750856 C37.2372193,11.3420159 29.7634526,3.85782855 20.5446727,3.85782855 Z" id="形状" fill="#878999"></path>
                            <path d="M20.5446727,10.5723791 L30.5319517,20.5750856 L20.5446727,30.5771491 L10.5567517,20.5750856 L20.5446727,10.5723791 Z M20.5446727,16.0286347 L16.0043,20.5750856 L20.5446727,25.1215366 L25.0844034,20.5750856 L20.5446727,16.0286347 Z" id="形状结合" fill="#024FFD"></path>
                        </g>
                    </g>
                </g>
            </g>
        </g>
    </g>
</svg>