<?xml version="1.0" encoding="UTF-8"?>
<svg width="46px" height="45px" viewBox="0 0 46 45" version="1.1" xmlns="http://www.w3.org/2000/svg" xmlns:xlink="http://www.w3.org/1999/xlink">
    <title>icon_bull</title>
    <g id="中文模版(定)" stroke="none" stroke-width="1" fill="none" fill-rule="evenodd">
        <g id="02-首页" transform="translate(-344.000000, -761.000000)" fill-rule="nonzero">
            <g id="快捷入口" transform="translate(23.500000, 744.000000)">
                <g id="赠金交易" transform="translate(295.500000, 17.000000)">
                    <g id="icon_bull" transform="translate(25.000000, 0.000000)">
                        <path d="M11.263417,6.71987642 C7.04934688,6.22554068 3.30006392,3.81565396 1.56485858,0.231719876 C1.40992953,-0.0772399588 1.00711401,-0.0772399588 0.883170771,0.231719876 C0.387397818,1.4984552 0.0775397222,2.82698249 0.015568103,4.15550978 C-0.170346754,7.77033986 1.31697211,11.261586 4.04372335,13.6405767 C4.1986524,13.7641607 4.38456725,13.7641607 4.5394963,13.6405767 L11.5113035,7.39958805 C11.7282041,7.18331617 11.5732751,6.7507724 11.263417,6.71987642 Z M34.736583,6.71987642 C38.9506531,6.22554068 42.6999361,3.81565396 44.4351414,0.231719876 C44.5900705,-0.0772399588 44.992886,-0.0772399588 45.1168292,0.231719876 C45.6126022,1.43666323 45.9224603,2.76519053 45.9844319,4.15550978 C46.1703468,7.77033986 44.6830279,11.261586 41.9562767,13.6405767 C41.8013476,13.7641607 41.6154327,13.7641607 41.4605037,13.6405767 L34.4886965,7.39958805 C34.2408101,7.18331617 34.3957391,6.7507724 34.736583,6.71987642 L34.736583,6.71987642 Z" id="形状" fill="#024FFD"></path>
                        <path d="M37.8680656,8.13261889 C41.8153812,12.0803751 43.8546713,17.0361688 44,23 C43.8546713,28.9638312 41.8153812,33.9196249 37.8680656,37.8673811 C33.9207501,41.8151373 28.9655095,43.8546551 23.002344,44 C17.0391785,43.8546551 12.0839379,41.8151373 8.13662239,37.8673811 C4.18461882,33.9196249 2.12657663,28.9638312 2,23 C2.12657663,17.0361688 4.18461882,12.0803751 8.13193437,8.13261889 C12.0792499,4.18486269 17.0391785,2.14534494 23.002344,2 C28.9655095,2.14534494 33.9207501,4.18486269 37.8680656,8.13261889 Z M35.7490791,35.7481581 C39.1291439,32.367716 40.8918406,28.1058272 41.0418574,23 C40.8918406,17.8988614 39.1291439,13.632284 35.7490791,10.2518419 C32.3643264,6.87139987 28.1029133,5.10850636 23.002344,4.95847287 C17.8783346,5.10381782 13.6356736,6.87139987 10.2556089,10.2518419 C6.85210403,13.632284 5.0894073,17.8988614 4.96283067,23 C5.0894073,28.1245814 6.85210403,32.367716 10.2556089,35.7481581 C13.6356736,39.1286001 17.8970867,40.8914936 23.002344,41.0415271 C28.1029133,40.9149364 32.3643264,39.1520429 35.7490791,35.7481581 Z" id="形状" stroke="#878999" stroke-width="0.5" fill="#878999"></path>
                        <g id="编组" transform="translate(13.000000, 13.000000)" fill="#024FFD">
                            <path d="M14.0564545,8.69211776 C11.5186915,6.61099034 7.16035941,8.11706939 6.1949061,11.4030601 L5.14669964,15.0176498 C4.20883071,18.3036405 7.38103445,20.9050497 10.8842507,19.7001865 L14.746064,18.3857902 C18.2492803,17.180927 19.4354086,13.0734387 16.8700613,11.0196945 L14.0564545,8.69211776 L14.0564545,8.69211776 Z" id="路径"></path>
                            <path d="M3.98815567,10.4720294 C3.49163683,8.88380055 2.22275533,7.87062009 1.17454888,8.19921916 C0.12634243,8.52781823 -0.287423274,10.0886638 0.209095571,11.6768926 C0.705614417,13.2651214 1.97449591,14.2783019 3.02270236,13.9497028 C4.07090881,13.6211038 4.5122589,12.0602582 3.98815567,10.4720294 L3.98815567,10.4720294 Z" id="路径"></path>
                            <path d="M18.083774,4.39294664 C17.4493333,3.59883223 16.6769706,3.27023316 15.9873611,3.4892992 C14.9391546,3.81789827 14.5253889,5.37874384 15.0219078,6.96697266 C15.5184266,8.55520148 16.7873081,9.56838194 17.8355146,9.23978287 C18.4975397,9.02071683 18.9664742,8.28136893 18.9940586,7.29557173 C19.0492273,6.22762476 18.7182147,5.2144443 18.083774,4.39294664 Z" id="路径"></path>
                            <path d="M5.97423105,2.9964006 C5.36737469,2.20228619 4.56742766,1.87368713 3.87781815,2.09275317 C3.18820864,2.31181921 2.77444294,3.05116711 2.71927418,4.06434757 C2.6916898,5.10491128 3.02270236,6.11809174 3.65714311,6.93958941 C4.26399947,7.73370382 5.0639465,8.06230288 5.75355601,7.84323684 C6.41558114,7.62417079 6.85693122,6.88482289 6.91209998,5.87164244 C6.93968436,4.85846198 6.6086718,3.84528153 5.97423105,2.9964006 Z" id="路径"></path>
                            <path d="M12.3462229,0.970039692 C11.7117822,0.17592528 10.9118351,-0.152673786 10.24981,0.0663922582 C9.58778487,0.285458303 9.14643479,1.0248062 9.09126603,2.03798666 C9.06368165,3.07855037 9.39469421,4.09173083 10.029135,4.91322849 C10.6635757,5.7073429 11.4359384,6.03594197 12.1255479,5.81687593 C12.787573,5.59780988 13.2565075,4.85846198 13.2840918,3.84528153 C13.3116762,2.80471781 12.9806636,1.79153736 12.3462229,0.970039692 Z" id="路径"></path>
                        </g>
                    </g>
                </g>
            </g>
        </g>
    </g>
</svg>