<?xml version="1.0" encoding="UTF-8"?>
<svg width="67px" height="66px" viewBox="0 0 67 66" version="1.1" xmlns="http://www.w3.org/2000/svg" xmlns:xlink="http://www.w3.org/1999/xlink">
    <title>nft-2备份</title>
    <g id="网格交易" stroke="none" stroke-width="1" fill="none" fill-rule="evenodd">
        <g id="icon_NFT" transform="translate(-96.000000, -65.000000)">
            <g id="nft-2备份" transform="translate(96.000000, 65.000000)">
                <rect id="矩形" fill="#000000" fill-rule="nonzero" opacity="0" x="0" y="0" width="66" height="66"></rect>
                <g id="NFT" transform="translate(9.248647, 31.922214)" fill="#04C275" fill-rule="nonzero">
                    <polygon id="路径" points="11.445 14.952 11.445 0 8.526 0 8.526 9.156 2.604 0 0 0 0 14.952 2.919 14.952 2.919 5.775 8.841 14.952"></polygon>
                    <polygon id="路径" points="24.78 2.604 24.78 0 14.931 0 14.931 14.952 17.85 14.952 17.85 8.883 23.751 8.883 23.751 6.279 17.85 6.279 17.85 2.604"></polygon>
                    <polygon id="路径" points="36.939 2.604 36.939 0 26.208 0 26.208 2.604 30.114 2.604 30.114 14.952 33.033 14.952 33.033 2.604"></polygon>
                </g>
                <path d="M63.7308909,47.2853159 C62.476689,47.2800946 61.4627233,46.262772 61.4627341,45.0096502 L61.4627341,19.6331336 C61.4627486,14.6258971 57.4064338,10.5633554 52.3948523,10.5513313 L16.4924933,10.5513313 C15.2345837,10.5513313 14.2148464,9.53248109 14.2148464,8.27566565 C14.2148464,7.01885022 15.2345837,6 16.4924933,6 L52.3948523,6 C59.9167295,6.01830245 66.0036828,12.1177782 65.9999983,19.6331336 L65.9999983,45.0115466 C65.9989606,46.2642969 64.9847235,47.2806185 63.7308909,47.2853159 Z" id="形状_6-path" stroke="#878999" stroke-width="1.5" fill="#878999"></path>
                <path d="M48.482272,18.9534145 C50.1448962,18.9564121 51.6492776,19.6317237 52.7382047,20.7213425 C53.8280743,21.8119045 54.5018446,23.3174174 54.5023424,24.9808108 L54.5023424,53.9241869 C54.5023424,55.5869335 53.8289227,57.0928758 52.7392176,58.1839292 C51.6504535,59.2740406 50.146048,59.9499063 48.4768633,59.9534097 L9.41006035,59.953403 C7.74718401,59.9499063 6.24277858,59.2740406 5.15401444,58.1839292 C4.06430931,57.0928758 3.39088961,55.5869335 3.39088961,53.9241869 L3.39088974,24.9799127 C3.39138746,23.3174174 4.06515775,21.8119045 5.15502737,20.7213425 C6.24395442,19.6317237 7.74833586,18.9564121 9.41636875,18.9534097 Z" id="形状_6-path" stroke="#878999" stroke-width="6" stroke-linejoin="round"></path>
            </g>
        </g>
    </g>
</svg>