<?xml version="1.0" encoding="UTF-8"?>
<svg width="24px" height="23px" viewBox="0 0 24 23" version="1.1" xmlns="http://www.w3.org/2000/svg" xmlns:xlink="http://www.w3.org/1999/xlink">
    <title>icon_gendan</title>
    <g id="永续合约2.0（确定方案）" stroke="none" stroke-width="1" fill="none" fill-rule="evenodd">
        <g id="13-持仓" transform="translate(-380.000000, -858.000000)">
            <g id="跟单" transform="translate(370.000000, 850.000000)">
                <g id="icon_gendan" transform="translate(10.000000, 8.000000)">
                    <rect id="矩形_1263" fill-rule="nonzero" x="0" y="0" width="24" height="24"></rect>
                    <path d="M22.5,0 C23.3284271,-1.52179594e-16 24,0.671572875 24,1.5 L24,21.5163014 C24,22.3447285 23.3284271,23.0163014 22.5,23.0163014 C22.2567226,23.0163014 22.0170957,22.9571301 21.8017809,22.8438894 L12.6982191,18.0560483 C12.2611223,17.8261657 11.7388777,17.8261657 11.3017809,18.0560483 L2.19821911,22.8438894 C1.46501247,23.2295052 0.558027701,22.9477271 0.172411934,22.2145205 C0.0591713129,21.9992057 1.58410512e-15,21.7595788 0,21.5163014 L0,1.5 C-1.01453063e-16,0.671572875 0.671572875,1.52179594e-16 1.5,0 L22.5,0 Z M18,11 L6,11 C5.44771525,11 5,11.4477153 5,12 C5,12.5522847 5.44771525,13 6,13 L18,13 C18.5522847,13 19,12.5522847 19,12 C19,11.4477153 18.5522847,11 18,11 Z M18,5 L6,5 C5.44771525,5 5,5.44771525 5,6 C5,6.55228475 5.44771525,7 6,7 L18,7 C18.5522847,7 19,6.55228475 19,6 C19,5.44771525 18.5522847,5 18,5 Z" id="形状结合" fill="#D0A858"></path>
                </g>
            </g>
        </g>
    </g>
</svg>