<?xml version="1.0" encoding="UTF-8"?>
<svg width="60px" height="60px" viewBox="0 0 60 60" version="1.1" xmlns="http://www.w3.org/2000/svg" xmlns:xlink="http://www.w3.org/1999/xlink">
    <title>icon_shenfen</title>
    <g id="KYC认证" stroke="none" stroke-width="1" fill="none" fill-rule="evenodd">
        <g id="4-信息核对" transform="translate(-345.000000, -206.000000)">
            <g id="流程说明" transform="translate(30.000000, 206.000000)">
                <g id="icon_shenfen" transform="translate(315.000000, 0.000000)">
                    <circle id="椭圆形" fill="#D0A858" cx="30" cy="30" r="30"></circle>
                    <path d="M41.5909091,16.8636364 L18.4090909,16.8636364 C16.2748182,16.8636364 14.5454546,18.593 14.5454546,20.7272727 L14.5454546,39.2727273 C14.5454546,41.407 16.2748182,43.1363636 18.4090909,43.1363636 L41.5909091,43.1363636 C43.7251818,43.1363636 45.4545454,41.407 45.4545454,39.2727273 L45.4545454,20.7272727 C45.4545454,18.593 43.7251818,16.8636364 41.5909091,16.8636364 Z M43.9090909,39.2727273 C43.9090909,40.5523636 42.8705455,41.5909091 41.5909091,41.5909091 L18.4090909,41.5909091 C17.1294546,41.5909091 16.0909091,40.5523636 16.0909091,39.2727273 L16.0909091,20.7272727 C16.0909091,19.4476364 17.1294545,18.4090909 18.4090909,18.4090909 L41.5909091,18.4090909 C42.8705454,18.4090909 43.9090909,19.4476364 43.9090909,20.7272727 L43.9090909,39.2727273 Z M19.1818182,36.1818182 L27.6818182,36.1818182 L27.6818182,34.6363636 L19.1818182,34.6363636 L19.1818182,36.1818182 Z M19.1818182,30.7727273 L27.6818182,30.7727273 L27.6818182,29.2272727 L19.1818182,29.2272727 L19.1818182,30.7727273 Z M19.1818182,25.3636364 L27.6818182,25.3636364 L27.6818182,23.8181818 L19.1818182,23.8181818 L19.1818182,25.3636364 Z M37.8849091,30.6259091 C38.7256364,29.9165454 39.2727273,28.8687273 39.2727273,27.6818182 C39.2727273,25.5475454 37.5433636,23.8181818 35.4090909,23.8181818 C33.2748182,23.8181818 31.5454546,25.5475454 31.5454546,27.6818182 C31.5454546,28.8687273 32.0925455,29.9165454 32.9332727,30.6259091 C31.1977273,31.5269091 30,33.3196364 30,35.4090909 C30,35.8356364 30.3461818,36.1818182 30.7727273,36.1818182 C31.1992727,36.1818182 31.5454545,35.8356364 31.5454545,35.4090909 C31.5454545,33.2748182 33.2748182,31.5454546 35.4090909,31.5454546 C37.5433636,31.5454546 39.2727272,33.2748182 39.2727272,35.4090909 C39.2727272,35.8356364 39.6189091,36.1818182 40.0454545,36.1818182 C40.4719999,36.1818182 40.8181818,35.8356364 40.8181818,35.4090909 C40.8181818,33.3196364 39.6204546,31.5269091 37.8849091,30.6259091 Z M35.4090909,30 C34.1294546,30 33.0909091,28.9614546 33.0909091,27.6818182 C33.0909091,26.4021818 34.1294546,25.3636364 35.4090909,25.3636364 C36.6887273,25.3636364 37.7272727,26.4021818 37.7272727,27.6818182 C37.7272727,28.9614546 36.6887273,30 35.4090909,30 Z" id="形状" fill="#FFFFFF" fill-rule="nonzero"></path>
                </g>
            </g>
        </g>
    </g>
</svg>