<?xml version="1.0" encoding="UTF-8"?>
<svg width="44px" height="44px" viewBox="0 0 44 44" version="1.1" xmlns="http://www.w3.org/2000/svg" xmlns:xlink="http://www.w3.org/1999/xlink">
    <title>icon_history3</title>
    <g id="Joybit蓝色" stroke="none" stroke-width="1" fill="none" fill-rule="evenodd">
        <g id="0-图标下载" transform="translate(-53.000000, -238.000000)">
            <g id="兑换记录" transform="translate(15.000000, 238.000000)">
                <g id="icon_history3" transform="translate(38.000000, 0.000000)">
                    <path d="M0,0 L44,0 L44,44 L0,44 L0,0 Z" id="矩形"></path>
                    <g id="history-fill" transform="translate(3.000000, 2.000000)" fill-rule="nonzero">
                        <path d="M23.9259259,11.4285714 L8.44444444,11.4285714 C7.67037037,11.4285714 7.03703704,10.7857143 7.03703704,10 C7.03703704,9.21428571 7.67037037,8.57142857 8.44444444,8.57142857 L23.9259259,8.57142857 C24.7,8.57142857 25.3333333,9.21428571 25.3333333,10 C25.3333333,10.7857143 24.7,11.4285714 23.9259259,11.4285714 Z M15.4814815,20 L8.44444444,20 C7.67037037,20 7.03703704,19.3571429 7.03703704,18.5714286 C7.03703704,17.7857143 7.67037037,17.1428571 8.44444444,17.1428571 L15.4814815,17.1428571 C16.2555556,17.1428571 16.8888889,17.7857143 16.8888889,18.5714286 C16.8888889,19.3571429 16.2555556,20 15.4814815,20 Z" id="形状" fill="#878999"></path>
                        <path d="M26.7407407,17.1428571 C20.522419,17.1428571 15.4814815,22.2595982 15.4814815,28.5714286 C15.4814815,34.8832589 20.522419,40 26.7407407,40 C32.9590625,40 38,34.8832589 38,28.5714286 C38,22.2595982 32.9590625,17.1428571 26.7407407,17.1428571 Z" id="路径" stroke="#878999" stroke-width="2.72707607"></path>
                        <path d="M30.5764119,30.3923638 C30.5764119,31.1780781 29.9430786,31.8209352 29.1690045,31.8209352 L24.9467823,31.8209352 C24.1727082,31.8209352 23.5393749,31.1780781 23.5393749,30.3923638 L23.5393749,24.6780781 C23.5393749,23.8923638 24.1727082,23.2495067 24.9467823,23.2495067 C25.7208564,23.2495067 26.3541897,23.8923638 26.3541897,24.6780781 L26.3541897,28.9637924 L29.1690045,28.9637924 C29.9430786,28.9637924 30.5764119,29.6066495 30.5764119,30.3923638 Z" id="路径" fill="#024FFD"></path>
                        <path d="M14.5499977,35.7142857 L5.62962963,35.7142857 C4.08148148,35.7142857 2.81481481,34.4285714 2.81481481,32.8571429 L2.81481481,5.71428571 C2.81481481,4.14285714 4.08148148,2.85714286 5.62962963,2.85714286 L26.7407407,2.85714286 C28.2888889,2.85714286 29.5555556,4.14285714 29.5555556,5.71428571 L29.5555556,14.5717411 C30.5226574,14.7712093 31.4662015,15.0741821 32.3703704,15.4755804 L32.3703704,5.71428571 C32.3703704,2.57142857 29.837037,0 26.7407407,0 L5.62962963,0 C2.53333333,0 0,2.57142857 0,5.71428571 L0,32.8571429 C0,36 2.53333333,38.5714286 5.62962963,38.5714286 L16.6911921,38.5714286 C15.8655278,37.7166071 15.1444514,36.7573661 14.5499977,35.7142857 Z" id="路径" fill="#878999"></path>
                    </g>
                </g>
            </g>
        </g>
    </g>
</svg>