<?xml version="1.0" encoding="UTF-8"?>
<svg width="60px" height="60px" viewBox="0 0 60 60" version="1.1" xmlns="http://www.w3.org/2000/svg" xmlns:xlink="http://www.w3.org/1999/xlink">
    <title>开关</title>
    <g id="红包页" stroke="none" stroke-width="1" fill="none" fill-rule="evenodd">
        <g id="3-发红包_普通" transform="translate(-660.000000, -732.000000)" fill-rule="nonzero">
            <g id="新注册用户领取" transform="translate(0.000000, 722.000000)">
                <g id="开关" transform="translate(660.000000, 10.000000)">
                    <rect id="矩形" fill="#000000" opacity="0" x="0" y="0" width="60" height="60"></rect>
                    <path d="M19.7806641,13.6904297 L40.575,13.6904297 C49.3998047,13.6904297 56.5535156,20.8441406 56.5535156,29.6689453 C56.5535156,38.49375 49.3998047,45.6474609 40.575,45.6474609 L19.7806641,45.6474609 C10.9558594,45.6474609 3.80214844,38.49375 3.80214844,29.6689453 C3.80214844,20.8441406 10.9564453,13.6904297 19.7806641,13.6904297 Z" id="路径" fill="#F0B90B"></path>
                    <path d="M26.1457031,29.6689453 C26.1457031,37.6778293 32.5962131,44.1703125 40.5533203,44.1703125 C48.5104276,44.1703125 54.9609375,37.6778293 54.9609375,29.6689453 C54.9609375,21.6600614 48.5104276,15.1675781 40.5533203,15.1675781 C32.5962131,15.1675781 26.1457031,21.6600614 26.1457031,29.6689453 Z" id="路径" fill="#FFFFFF"></path>
                </g>
            </g>
        </g>
    </g>
</svg>