<?xml version="1.0" encoding="UTF-8"?>
<svg width="24px" height="24px" viewBox="0 0 24 24" version="1.1" xmlns="http://www.w3.org/2000/svg" xmlns:xlink="http://www.w3.org/1999/xlink">
    <title>icon_hua5</title>
    <g id="Joybit蓝色" stroke="none" stroke-width="1" fill="none" fill-rule="evenodd">
        <g id="0-图标下载" transform="translate(-347.000000, -739.000000)">
            <g id="划转彩色" transform="translate(339.000000, 739.000000)">
                <g id="icon_hua5" transform="translate(8.000000, 0.000000)">
                    <path d="M0,0 L24,0 L24,24 L0,24 L0,0 Z" id="矩形"></path>
                    <path d="M20.8339016,14.5585284 L2.21439661,14.5585284 C2.09667086,14.5585284 2.00034979,14.6548495 2.00034979,14.7725753 L2.00034979,16.3779264 C2.00034979,16.4956522 2.09667086,16.5919732 2.21439661,16.5919732 L18.4070388,16.5919732 L14.5460622,21.4885084 C14.4956636,21.5532405 14.4864259,21.6409863 14.5222393,21.7147946 C14.5580527,21.7886029 14.6326942,21.8356488 14.7147311,21.8361204 L16.6544234,21.8361204 C16.78542,21.8361204 16.908711,21.7770435 16.9917612,21.6730167 L21.5081491,15.9442676 C21.9495137,15.3826087 21.5509585,14.5585284 20.8339016,14.5585284 Z M21.4786107,8.24414716 L5.28596852,8.24414716 L9.14694511,3.34761204 C9.19734368,3.28287991 9.20658134,3.19513406 9.17076795,3.12132576 C9.13495456,3.04751745 9.06031304,3.0004716 8.97827621,3 L7.0385839,3 C6.90758725,3 6.78429628,3.05864883 6.70124611,3.16310368 L2.18485815,8.89142475 C1.7434936,9.45351171 2.14204878,10.277592 2.85653708,10.277592 L21.4786107,10.277592 C21.5963364,10.277592 21.6926575,10.1812709 21.6926575,10.0635452 L21.6926575,8.45819398 C21.6926575,8.34046823 21.5963364,8.24414716 21.4786107,8.24414716 Z" id="kSASSVGImageLayerID1" stroke="#024FFD" fill="#024FFD" fill-rule="nonzero"></path>
                </g>
            </g>
        </g>
    </g>
</svg>