<?xml version="1.0" encoding="UTF-8"?>
<svg width="24px" height="24px" viewBox="0 0 24 24" version="1.1" xmlns="http://www.w3.org/2000/svg" xmlns:xlink="http://www.w3.org/1999/xlink">
    <title>icon_share02@2x</title>
    <g id="Joybit蓝色" stroke="none" stroke-width="1" fill="none" fill-rule="evenodd">
        <g id="2-交易（英文）" transform="translate(-343.000000, -1215.000000)" fill-rule="nonzero">
            <g id="持仓01" transform="translate(0.000000, 1190.000000)">
                <g id="币对" transform="translate(30.000000, 18.000000)">
                    <g id="分享" transform="translate(313.000000, 5.000000)">
                        <g id="icon_share02" transform="translate(0.000000, 2.000000)">
                            <rect id="矩形_1263" x="0" y="0" width="24" height="24"></rect>
                            <path d="M22.7809141,6.17612844 L18.7478271,2.21581581 C18.4555949,1.9280614 17.9810673,1.9280614 17.6881283,2.21581581 C17.3952482,2.50292222 17.3952482,2.96906138 17.6881283,3.25649179 L19.9963003,5.52341576 C14.7343243,5.4251215 9.89283517,9.05399666 8.20305395,14.0194615 L9.58950032,14.6730873 C11.0800818,10.2490214 16.0432878,6.54161693 20.7897418,7.06864141 L17.7011746,10.1012413 C17.4115341,10.3864036 17.4115341,10.8486546 17.7011746,11.1337874 C17.9914631,11.4189792 18.4621034,11.4189792 18.7523624,11.1337874 L22.6624368,7.29294784 C22.702106,7.26690884 22.7457803,7.25094375 22.7802073,7.21645094 C23.0731463,6.9299926 23.0731463,6.46388288 22.7809141,6.17612844 Z M20.9960683,19.666653 C20.9960683,20.310853 20.3992055,20.8332529 19.6630148,20.8332529 L3.66616599,20.8332529 C2.92997528,20.8332529 2.33308299,20.310853 2.33308299,19.666653 L2.33308299,5.66663022 C2.33308299,5.02245974 2.92997528,4.50000093 3.66616599,4.50000093 L10.3315516,4.50000093 L10.3315516,3.33334217 L2.33308299,3.33334217 C1.59692173,3.33334217 1,3.85580098 1,4.50000093 L1,20.8332823 C1,21.4775117 1.59692173,22 2.33308299,22 L20.9960683,22 C21.7322885,22 22.3291808,21.4775117 22.3291808,20.8332823 L22.3291808,13.8333004 L20.9960683,13.8333004 L20.9960683,19.666653 Z" id="形状" stroke="#024FFD" stroke-width="0.5" fill="#024FFD"></path>
                        </g>
                    </g>
                </g>
            </g>
        </g>
    </g>
</svg>